<?xml version="1.0" encoding="UTF-8" standalone="yes"?>
<!DOCTYPE svg PUBLIC "-//W3C//DTD SVG 1.0//EN" "http://www.w3.org/TR/2001/REC-SVG-20010904/DTD/svg10.dtd">
<svg height="450" width="676" xmlns="http://www.w3.org/2000/svg" xmlns:svg="http://www.w3.org/2000/svg" xmlns:xlink="http://www.w3.org/1999/xlink">
	<text fill="black" font-family="Arial" font-size="15" stroke="none" text-anchor="end" x="92.5" y="355">0</text>
	<line stroke="black" stroke-width="2" x1="100" x2="95" y1="350" y2="350" />
	<text fill="black" font-family="Arial" font-size="15" stroke="none" text-anchor="end" x="92.5" y="280">0.25</text>
	<line stroke="black" stroke-width="2" x1="100" x2="95" y1="275" y2="275" />
	<line stroke="black" stroke-dasharray="3 2" stroke-width="0.5" x1="100" x2="550" y1="275" y2="275" />
	<text fill="black" font-family="Arial" font-size="15" stroke="none" text-anchor="end" x="92.5" y="205">0.5</text>
	<line stroke="black" stroke-width="2" x1="100" x2="95" y1="200" y2="200" />
	<line stroke="black" stroke-dasharray="3 2" stroke-width="0.5" x1="100" x2="550" y1="200" y2="200" />
	<text fill="black" font-family="Arial" font-size="15" stroke="none" text-anchor="end" x="92.5" y="130">0.75</text>
	<line stroke="black" stroke-width="2" x1="100" x2="95" y1="125" y2="125" />
	<line stroke="black" stroke-dasharray="3 2" stroke-width="0.5" x1="100" x2="550" y1="125" y2="125" />
	<text fill="black" font-family="Arial" font-size="15" stroke="none" text-anchor="end" x="92.5" y="55">1</text>
	<line stroke="black" stroke-width="2" x1="100" x2="95" y1="50" y2="50" />
	<line stroke="black" stroke-width="1" x1="100" x2="100" y1="50" y2="350" />
	<text fill="black" font-family="Arial" font-size="15" stroke="none" text-anchor="middle" x="325" y="421.26581755321">sample Name</text>
	<g transform="rotate(-90,47.5,200)">
		<text fill="black" font-family="Arial" font-size="15" stroke="none" text-anchor="middle" x="47.5" y="200">Relative Abundance</text>
	</g>
	<line stroke="black" stroke-width="2" x1="118" x2="118" y1="350" y2="352.7" />
	<g fill="black" font-family="Arial" font-size="13.5" stroke="none" text-anchor="end" transform="rotate(-45,109,359)">
		<text x="109" y="363.5">PRK01002</text>
	</g>
	<rect fill="crimson" height="77.653310903808" stroke="crimson" width="9" x="104.5" y="272.346689096192" />
	<rect fill="blue" height="206.113320079523" stroke="blue" width="9" x="104.5" y="66.2333690166689" />
	<rect fill="lightseagreen" height="8.62134883009635" stroke="lightseagreen" width="9" x="104.5" y="57.6120201865726" />
	<rect fill="orange" height="6.88178620584186" stroke="orange" width="9" x="104.5" y="50.7302339807307" />
	<rect fill="mediumpurple" height="0.126166080440434" stroke="mediumpurple" width="9" x="104.5" y="50.6040679002903" />
	<rect fill="palegreen" height="0.0726410766172197" stroke="palegreen" width="9" x="104.5" y="50.5314268236731" />
	<rect fill="dodgerblue" height="0.0497017892644134" stroke="dodgerblue" width="9" x="104.5" y="50.4817250344086" />
	<rect fill="lawngreen" height="0.420553601468115" stroke="lawngreen" width="9" x="104.5" y="50.0611714329405" />
	<rect fill="yellow" height="0.0611714329404" stroke="yellow" width="9" x="104.5" y="50.0000000000001" />
	<line stroke="black" stroke-width="2" x1="136" x2="136" y1="350" y2="352.7" />
	<g fill="black" font-family="Arial" font-size="13.5" stroke="none" text-anchor="end" transform="rotate(-45,127,359)">
		<text x="127" y="363.5">SMG01004</text>
	</g>
	<rect fill="crimson" height="179.174950298211" stroke="crimson" width="9" x="122.5" y="170.825049701789" />
	<rect fill="blue" height="103.012693072335" stroke="blue" width="9" x="122.5" y="67.812356629454" />
	<rect fill="lightseagreen" height="14.4402813885915" stroke="lightseagreen" width="9" x="122.5" y="53.3720752408625" />
	<rect fill="orange" height="2.06453586175256" stroke="orange" width="9" x="122.5" y="51.3075393791099" />
	<rect fill="mediumpurple" height="0.0649946474996178" stroke="mediumpurple" width="9" x="122.5" y="51.2425447316103" />
	<rect fill="lightcoral" height="0.0152928582352042" stroke="lightcoral" width="9" x="122.5" y="51.2272518733751" />
	<rect fill="dodgerblue" height="0.0114696436764031" stroke="dodgerblue" width="9" x="122.5" y="51.2157822296987" />
	<rect fill="lawngreen" height="1.17372686955192" stroke="lawngreen" width="9" x="122.5" y="50.0420553601468" />
	<rect fill="yellow" height="0.0420553601469" stroke="yellow" width="9" x="122.5" y="49.9999999999999" />
	<line stroke="black" stroke-width="2" x1="154" x2="154" y1="350" y2="352.7" />
	<g fill="black" font-family="Arial" font-size="13.5" stroke="none" text-anchor="end" transform="rotate(-45,145,359)">
		<text x="145" y="363.5">SMG01005</text>
	</g>
	<rect fill="crimson" height="226.215782229699" stroke="crimson" width="9" x="140.5" y="123.784217770301" />
	<rect fill="blue" height="49.9388285670591" stroke="blue" width="9" x="140.5" y="73.8453892032419" />
	<rect fill="lightseagreen" height="9.15659886832848" stroke="lightseagreen" width="9" x="140.5" y="64.6887903349134" />
	<rect fill="orange" height="14.3676403119743" stroke="orange" width="9" x="140.5" y="50.3211500229391" />
	<rect fill="mediumpurple" height="0.00764642911760208" stroke="mediumpurple" width="9" x="140.5" y="50.3135035938215" />
	<rect fill="dodgerblue" height="0.0611714329408167" stroke="dodgerblue" width="9" x="140.5" y="50.2523321608807" />
	<rect fill="lawngreen" height="0.198807157057654" stroke="lawngreen" width="9" x="140.5" y="50.053525003823" />
	<rect fill="yellow" height="0.053525003823" stroke="yellow" width="9" x="140.5" y="50" />
	<line stroke="black" stroke-width="2" x1="172" x2="172" y1="350" y2="352.7" />
	<g fill="black" font-family="Arial" font-size="13.5" stroke="none" text-anchor="end" transform="rotate(-45,163,359)">
		<text x="163" y="363.5">LPK01006</text>
	</g>
	<rect fill="crimson" height="71.8573176326655" stroke="crimson" width="9" x="158.5" y="278.142682367334" />
	<rect fill="blue" height="173.738339195596" stroke="blue" width="9" x="158.5" y="104.404343171739" />
	<rect fill="lightseagreen" height="42.1318244379876" stroke="lightseagreen" width="9" x="158.5" y="62.2725187337513" />
	<rect fill="orange" height="10.223275730234" stroke="orange" width="9" x="158.5" y="52.0492430035173" />
	<rect fill="mediumpurple" height="0.00382321455880104" stroke="mediumpurple" width="9" x="158.5" y="52.0454197889585" />
	<rect fill="palegreen" height="0.0114696436764031" stroke="palegreen" width="9" x="158.5" y="52.0339501452821" />
	<rect fill="dodgerblue" height="0.0229392873528062" stroke="dodgerblue" width="9" x="158.5" y="52.0110108579293" />
	<rect fill="lawngreen" height="1.73191619513687" stroke="lawngreen" width="9" x="158.5" y="50.2790946627924" />
	<rect fill="olive" height="0.084110720293623" stroke="olive" width="9" x="158.5" y="50.1949839424988" />
	<rect fill="yellow" height="0.1949839424988" stroke="yellow" width="9" x="158.5" y="50" />
	<line stroke="black" stroke-width="2" x1="190" x2="190" y1="350" y2="352.7" />
	<g fill="black" font-family="Arial" font-size="13.5" stroke="none" text-anchor="end" transform="rotate(-45,181,359)">
		<text x="181" y="363.5">RRM01008</text>
	</g>
	<rect fill="crimson" height="138.522709894479" stroke="crimson" width="9" x="176.5" y="211.477290105521" />
	<rect fill="blue" height="140.961920782994" stroke="blue" width="9" x="176.5" y="70.5153693225263" />
	<rect fill="lightseagreen" height="11.1179079369934" stroke="lightseagreen" width="9" x="176.5" y="59.3974613855329" />
	<rect fill="orange" height="1.27313044808074" stroke="orange" width="9" x="176.5" y="58.1243309374521" />
	<rect fill="mediumpurple" height="3.22296987306927" stroke="mediumpurple" width="9" x="176.5" y="54.9013610643829" />
	<rect fill="dodgerblue" height="2.65713411836672" stroke="dodgerblue" width="9" x="176.5" y="52.2442269460161" />
	<rect fill="lawngreen" height="0.198807157057654" stroke="lawngreen" width="9" x="176.5" y="52.0454197889585" />
	<rect fill="olive" height="1.77397155528368" stroke="olive" width="9" x="176.5" y="50.2714482336748" />
	<rect fill="yellow" height="0.2714482336749" stroke="yellow" width="9" x="176.5" y="49.9999999999999" />
	<line stroke="black" stroke-width="2" x1="208" x2="208" y1="350" y2="352.7" />
	<g fill="black" font-family="Arial" font-size="13.5" stroke="none" text-anchor="end" transform="rotate(-45,199,359)">
		<text x="199" y="363.5">RSM01009</text>
	</g>
	<rect fill="crimson" height="124.384462456033" stroke="crimson" width="9" x="194.5" y="225.615537543967" />
	<rect fill="blue" height="158.636641688332" stroke="blue" width="9" x="194.5" y="66.9788958556355" />
	<rect fill="lightseagreen" height="5.76158434011318" stroke="lightseagreen" width="9" x="194.5" y="61.2173115155223" />
	<rect fill="orange" height="11.1102615078758" stroke="orange" width="9" x="194.5" y="50.1070500076465" />
	<rect fill="lightcoral" height="0.00764642911760208" stroke="lightcoral" width="9" x="194.5" y="50.0994035785289" />
	<rect fill="dodgerblue" height="0.0229392873528062" stroke="dodgerblue" width="9" x="194.5" y="50.0764642911761" />
	<rect fill="lawngreen" height="0.0305857164704082" stroke="lawngreen" width="9" x="194.5" y="50.0458785747057" />
	<rect fill="yellow" height="0.0458785747056" stroke="yellow" width="9" x="194.5" y="50.0000000000001" />
	<line stroke="black" stroke-width="2" x1="226" x2="226" y1="350" y2="352.7" />
	<g fill="black" font-family="Arial" font-size="13.5" stroke="none" text-anchor="end" transform="rotate(-45,217,359)">
		<text x="217" y="363.5">MSY01012</text>
	</g>
	<rect fill="crimson" height="111.072029362288" stroke="crimson" width="9" x="212.5" y="238.927970637712" />
	<rect fill="blue" height="54.9854717846766" stroke="blue" width="9" x="212.5" y="183.942498853035" />
	<rect fill="lightseagreen" height="122.541673038691" stroke="lightseagreen" width="9" x="212.5" y="61.4008258143446" />
	<rect fill="orange" height="10.8999847071418" stroke="orange" width="9" x="212.5" y="50.5008411072028" />
	<rect fill="mediumpurple" height="0.00764642911760208" stroke="mediumpurple" width="9" x="212.5" y="50.4931946780852" />
	<rect fill="dodgerblue" height="0.0573482183820156" stroke="dodgerblue" width="9" x="212.5" y="50.4358464597032" />
	<rect fill="lawngreen" height="0.0573482183820156" stroke="lawngreen" width="9" x="212.5" y="50.3784982413212" />
	<rect fill="yellow" height="0.37849824132" stroke="yellow" width="9" x="212.5" y="50.0000000000012" />
	<line stroke="black" stroke-width="2" x1="244" x2="244" y1="350" y2="352.7" />
	<g fill="black" font-family="Arial" font-size="13.5" stroke="none" text-anchor="end" transform="rotate(-45,235,359)">
		<text x="235" y="363.5">YRB01013</text>
	</g>
	<rect fill="crimson" height="129.308762807769" stroke="crimson" width="9" x="230.5" y="220.691237192231" />
	<rect fill="blue" height="116.55069582505" stroke="blue" width="9" x="230.5" y="104.140541367181" />
	<rect fill="lightseagreen" height="50.0802875057349" stroke="lightseagreen" width="9" x="230.5" y="54.0602538614462" />
	<rect fill="orange" height="3.35295916806852" stroke="orange" width="9" x="230.5" y="50.7072946933777" />
	<rect fill="mediumpurple" height="0.0114696436764031" stroke="mediumpurple" width="9" x="230.5" y="50.6958250497013" />
	<rect fill="palegreen" height="0.0458785747056126" stroke="palegreen" width="9" x="230.5" y="50.6499464749957" />
	<rect fill="dodgerblue" height="0.0764642911760208" stroke="dodgerblue" width="9" x="230.5" y="50.5734821838196" />
	<rect fill="lawngreen" height="0.286741091910078" stroke="lawngreen" width="9" x="230.5" y="50.2867410919096" />
	<rect fill="yellow" height="0.2867410919094" stroke="yellow" width="9" x="230.5" y="50.0000000000002" />
	<line stroke="black" stroke-width="2" x1="262" x2="262" y1="350" y2="352.7" />
	<g fill="black" font-family="Arial" font-size="13.5" stroke="none" text-anchor="end" transform="rotate(-45,253,359)">
		<text x="253" y="363.5">MML01014</text>
	</g>
	<rect fill="crimson" height="146.257072946934" stroke="crimson" width="9" x="248.5" y="203.742927053066" />
	<rect fill="blue" height="122.702248050161" stroke="blue" width="9" x="248.5" y="81.0406790029058" />
	<rect fill="lightseagreen" height="26.8886679920477" stroke="lightseagreen" width="9" x="248.5" y="54.152011010858" />
	<rect fill="orange" height="3.77733598409544" stroke="orange" width="9" x="248.5" y="50.3746750267626" />
	<rect fill="mediumpurple" height="0.0764642911760208" stroke="mediumpurple" width="9" x="248.5" y="50.2982107355866" />
	<rect fill="palegreen" height="0.0191160727940052" stroke="palegreen" width="9" x="248.5" y="50.2790946627926" />
	<rect fill="lightcoral" height="0.0458785747056126" stroke="lightcoral" width="9" x="248.5" y="50.233216088087" />
	<rect fill="dodgerblue" height="0.0267625019116073" stroke="dodgerblue" width="9" x="248.5" y="50.2064535861754" />
	<rect fill="lawngreen" height="0.11087322220523" stroke="lawngreen" width="9" x="248.5" y="50.0955803639701" />
	<rect fill="yellow" height="0.0955803639702" stroke="yellow" width="9" x="248.5" y="49.9999999999999" />
	<line stroke="black" stroke-width="2" x1="280" x2="280" y1="350" y2="352.7" />
	<g fill="black" font-family="Arial" font-size="13.5" stroke="none" text-anchor="end" transform="rotate(-45,271,359)">
		<text x="271" y="363.5">RRG01015</text>
	</g>
	<rect fill="crimson" height="96.1538461538463" stroke="crimson" width="9" x="266.5" y="253.846153846154" />
	<rect fill="blue" height="192.76265484019" stroke="blue" width="9" x="266.5" y="61.0834990059641" />
	<rect fill="lightseagreen" height="7.84141306010094" stroke="lightseagreen" width="9" x="266.5" y="53.2420859458631" />
	<rect fill="orange" height="2.85976448998318" stroke="orange" width="9" x="266.5" y="50.38232145588" />
	<rect fill="mediumpurple" height="0.0420553601468115" stroke="mediumpurple" width="9" x="266.5" y="50.3402660957332" />
	<rect fill="palegreen" height="0.0229392873528062" stroke="palegreen" width="9" x="266.5" y="50.3173268083804" />
	<rect fill="dodgerblue" height="0.0497017892644134" stroke="dodgerblue" width="9" x="266.5" y="50.2676250191159" />
	<rect fill="lawngreen" height="0.122342865881633" stroke="lawngreen" width="9" x="266.5" y="50.1452821532343" />
	<rect fill="yellow" height="0.1452821532342" stroke="yellow" width="9" x="266.5" y="50.0000000000001" />
	<line stroke="black" stroke-width="2" x1="298" x2="298" y1="350" y2="352.7" />
	<g fill="black" font-family="Arial" font-size="13.5" stroke="none" text-anchor="end" transform="rotate(-45,289,359)">
		<text x="289" y="363.5">AEO01016</text>
	</g>
	<rect fill="crimson" height="229.473161033797" stroke="crimson" width="9" x="284.5" y="120.526838966203" />
	<rect fill="blue" height="8.16256308304023" stroke="blue" width="9" x="284.5" y="112.364275883163" />
	<rect fill="lightseagreen" height="11.5805168986084" stroke="lightseagreen" width="9" x="284.5" y="100.783758984554" />
	<rect fill="orange" height="50.4855482489676" stroke="orange" width="9" x="284.5" y="50.2982107355866" />
	<rect fill="mediumpurple" height="0.0152928582352042" stroke="mediumpurple" width="9" x="284.5" y="50.2829178773514" />
	<rect fill="palegreen" height="0.0305857164704082" stroke="palegreen" width="9" x="284.5" y="50.252332160881" />
	<rect fill="dodgerblue" height="0.00764642911760208" stroke="dodgerblue" width="9" x="284.5" y="50.2446857317634" />
	<rect fill="lawngreen" height="0.0764642911760208" stroke="lawngreen" width="9" x="284.5" y="50.1682214405874" />
	<rect fill="yellow" height="0.1682214405873" stroke="yellow" width="9" x="284.5" y="50.0000000000001" />
	<line stroke="black" stroke-width="2" x1="316" x2="316" y1="350" y2="352.7" />
	<g fill="black" font-family="Arial" font-size="13.5" stroke="none" text-anchor="end" transform="rotate(-45,307,359)">
		<text x="307" y="363.5">AR001017</text>
	</g>
	<rect fill="crimson" height="254.285823520416" stroke="crimson" width="9" x="302.5" y="95.714176479584" />
	<rect fill="blue" height="17.2121119437223" stroke="blue" width="9" x="302.5" y="78.5020645358617" />
	<rect fill="lightseagreen" height="7.03089157363512" stroke="lightseagreen" width="9" x="302.5" y="71.4711729622266" />
	<rect fill="orange" height="20.9818014987001" stroke="orange" width="9" x="302.5" y="50.4893714635265" />
	<rect fill="mediumpurple" height="0.0305857164704082" stroke="mediumpurple" width="9" x="302.5" y="50.4587857470561" />
	<rect fill="palegreen" height="0.0152928582352042" stroke="palegreen" width="9" x="302.5" y="50.4434928888209" />
	<rect fill="lightcoral" height="0.122342865881633" stroke="lightcoral" width="9" x="302.5" y="50.3211500229393" />
	<rect fill="dodgerblue" height="0.0114696436764031" stroke="dodgerblue" width="9" x="302.5" y="50.3096803792629" />
	<rect fill="lawngreen" height="0.084110720293623" stroke="lawngreen" width="9" x="302.5" y="50.2255696589692" />
	<rect fill="yellow" height="0.2255696589693" stroke="yellow" width="9" x="302.5" y="49.9999999999999" />
	<line stroke="black" stroke-width="2" x1="334" x2="334" y1="350" y2="352.7" />
	<g fill="black" font-family="Arial" font-size="13.5" stroke="none" text-anchor="end" transform="rotate(-45,325,359)">
		<text x="325" y="363.5">EMS01018</text>
	</g>
	<rect fill="crimson" height="147.247285517663" stroke="crimson" width="9" x="320.5" y="202.752714482337" />
	<rect fill="blue" height="132.688484477749" stroke="blue" width="9" x="320.5" y="70.0642300045877" />
	<rect fill="lightseagreen" height="7.88729163480654" stroke="lightseagreen" width="9" x="320.5" y="62.1769383697812" />
	<rect fill="orange" height="4.85930570423613" stroke="orange" width="9" x="320.5" y="57.3176326655451" />
	<rect fill="mediumpurple" height="0.0229392873528062" stroke="mediumpurple" width="9" x="320.5" y="57.2946933781923" />
	<rect fill="palegreen" height="6.15919865422848" stroke="palegreen" width="9" x="320.5" y="51.1354947239638" />
	<rect fill="dodgerblue" height="0.00382321455880104" stroke="dodgerblue" width="9" x="320.5" y="51.131671509405" />
	<rect fill="lawngreen" height="0.772289340877809" stroke="lawngreen" width="9" x="320.5" y="50.3593821685272" />
	<rect fill="yellow" height="0.359382168528" stroke="yellow" width="9" x="320.5" y="49.9999999999992" />
	<line stroke="black" stroke-width="2" x1="352" x2="352" y1="350" y2="352.7" />
	<g fill="black" font-family="Arial" font-size="13.5" stroke="none" text-anchor="end" transform="rotate(-45,343,359)">
		<text x="343" y="363.5">APA01019</text>
	</g>
	<rect fill="crimson" height="112.268695519193" stroke="crimson" width="9" x="338.5" y="237.731304480807" />
	<rect fill="blue" height="159.69567212112" stroke="blue" width="9" x="338.5" y="78.0356323596875" />
	<rect fill="lightseagreen" height="8.50665239333232" stroke="lightseagreen" width="9" x="338.5" y="69.5289799663552" />
	<rect fill="orange" height="3.2573788040985" stroke="orange" width="9" x="338.5" y="66.2716011622567" />
	<rect fill="mediumpurple" height="13.6985777641841" stroke="mediumpurple" width="9" x="338.5" y="52.5730233980726" />
	<rect fill="palegreen" height="0.0573482183820156" stroke="palegreen" width="9" x="338.5" y="52.5156751796905" />
	<rect fill="lightcoral" height="0.198807157057654" stroke="lightcoral" width="9" x="338.5" y="52.3168680226329" />
	<rect fill="dodgerblue" height="0.0649946474996178" stroke="dodgerblue" width="9" x="338.5" y="52.2518733751333" />
	<rect fill="lawngreen" height="1.74720905337208" stroke="lawngreen" width="9" x="338.5" y="50.5046643217612" />
	<rect fill="yellow" height="0.504664321761" stroke="yellow" width="9" x="338.5" y="50.0000000000002" />
	<line stroke="black" stroke-width="2" x1="370" x2="370" y1="350" y2="352.7" />
	<g fill="black" font-family="Arial" font-size="13.5" stroke="none" text-anchor="end" transform="rotate(-45,361,359)">
		<text x="361" y="363.5">MRK01020</text>
	</g>
	<rect fill="crimson" height="140.120813580058" stroke="crimson" width="9" x="356.5" y="209.879186419942" />
	<rect fill="blue" height="149.625324973237" stroke="blue" width="9" x="356.5" y="60.2538614467043" />
	<rect fill="lightseagreen" height="6.9697201406943" stroke="lightseagreen" width="9" x="356.5" y="53.28414130601" />
	<rect fill="orange" height="2.83682520263037" stroke="orange" width="9" x="356.5" y="50.4473161033796" />
	<rect fill="mediumpurple" height="0.0267625019116073" stroke="mediumpurple" width="9" x="356.5" y="50.420553601468" />
	<rect fill="palegreen" height="0.0152928582352042" stroke="palegreen" width="9" x="356.5" y="50.4052607432328" />
	<rect fill="lightcoral" height="0.00764642911760208" stroke="lightcoral" width="9" x="356.5" y="50.3976143141152" />
	<rect fill="dodgerblue" height="0.00764642911760208" stroke="dodgerblue" width="9" x="356.5" y="50.3899678849976" />
	<rect fill="lawngreen" height="0.271448233674874" stroke="lawngreen" width="9" x="356.5" y="50.1185196513228" />
	<rect fill="yellow" height="0.1185196513227" stroke="yellow" width="9" x="356.5" y="50.0000000000001" />
	<line stroke="black" stroke-width="2" x1="388" x2="388" y1="350" y2="352.7" />
	<g fill="black" font-family="Arial" font-size="13.5" stroke="none" text-anchor="end" transform="rotate(-45,379,359)">
		<text x="379" y="363.5">SSM01021</text>
	</g>
	<rect fill="crimson" height="149.579446398532" stroke="crimson" width="9" x="374.5" y="200.420553601468" />
	<rect fill="blue" height="108.716929194066" stroke="blue" width="9" x="374.5" y="91.7036244074018" />
	<rect fill="lightseagreen" height="31.8359076311364" stroke="lightseagreen" width="9" x="374.5" y="59.8677167762654" />
	<rect fill="orange" height="7.92934699495335" stroke="orange" width="9" x="374.5" y="51.9383697813121" />
	<rect fill="palegreen" height="0.126166080440434" stroke="palegreen" width="9" x="374.5" y="51.8122037008716" />
	<rect fill="dodgerblue" height="0.160575011469644" stroke="dodgerblue" width="9" x="374.5" y="51.651628689402" />
	<rect fill="lawngreen" height="0.244685731763267" stroke="lawngreen" width="9" x="374.5" y="51.4069429576387" />
	<rect fill="yellow" height="1.40694295764" stroke="yellow" width="9" x="374.5" y="49.9999999999987" />
	<line stroke="black" stroke-width="2" x1="406" x2="406" y1="350" y2="352.7" />
	<g fill="black" font-family="Arial" font-size="13.5" stroke="none" text-anchor="end" transform="rotate(-45,397,359)">
		<text x="397" y="363.5">TSY01022</text>
	</g>
	<rect fill="crimson" height="45.5115461079675" stroke="crimson" width="9" x="392.5" y="304.488453892033" />
	<rect fill="blue" height="116.095733292552" stroke="blue" width="9" x="392.5" y="188.39272059948" />
	<rect fill="lightseagreen" height="135.93821685273" stroke="lightseagreen" width="9" x="392.5" y="52.4545037467502" />
	<rect fill="orange" height="0.604067900290563" stroke="orange" width="9" x="392.5" y="51.8504358464597" />
	<rect fill="mediumpurple" height="0.0229392873528062" stroke="mediumpurple" width="9" x="392.5" y="51.8274965591068" />
	<rect fill="palegreen" height="0.0382321455880104" stroke="palegreen" width="9" x="392.5" y="51.7892644135188" />
	<rect fill="lightcoral" height="0.0152928582352042" stroke="lightcoral" width="9" x="392.5" y="51.7739715552836" />
	<rect fill="dodgerblue" height="0.084110720293623" stroke="dodgerblue" width="9" x="392.5" y="51.68986083499" />
	<rect fill="lawngreen" height="0.328796452056888" stroke="lawngreen" width="9" x="392.5" y="51.3610643829331" />
	<rect fill="olive" height="1.15078758219911" stroke="olive" width="9" x="392.5" y="50.210276800734" />
	<rect fill="yellow" height="0.2102768007339" stroke="yellow" width="9" x="392.5" y="50.0000000000001" />
	<line stroke="black" stroke-width="2" x1="424" x2="424" y1="350" y2="352.7" />
	<g fill="black" font-family="Arial" font-size="13.5" stroke="none" text-anchor="end" transform="rotate(-45,415,359)">
		<text x="415" y="363.5">DBM01024</text>
	</g>
	<rect fill="crimson" height="116.902431564459" stroke="crimson" width="9" x="410.5" y="233.097568435541" />
	<rect fill="blue" height="138.278024162716" stroke="blue" width="9" x="410.5" y="94.8195442728248" />
	<rect fill="lightseagreen" height="33.9463220675943" stroke="lightseagreen" width="9" x="410.5" y="60.8732222052305" />
	<rect fill="orange" height="9.60773818626702" stroke="orange" width="9" x="410.5" y="51.2654840189635" />
	<rect fill="mediumpurple" height="0.0152928582352042" stroke="mediumpurple" width="9" x="410.5" y="51.2501911607283" />
	<rect fill="palegreen" height="0.0573482183820156" stroke="palegreen" width="9" x="410.5" y="51.1928429423463" />
	<rect fill="lightcoral" height="0.397614314115309" stroke="lightcoral" width="9" x="410.5" y="50.795228628231" />
	<rect fill="dodgerblue" height="0.0305857164704082" stroke="dodgerblue" width="9" x="410.5" y="50.7646429117606" />
	<rect fill="lawngreen" height="0.470255390732529" stroke="lawngreen" width="9" x="410.5" y="50.294387521028" />
	<rect fill="yellow" height="0.294387521028" stroke="yellow" width="9" x="410.5" y="50" />
	<line stroke="black" stroke-width="2" x1="442" x2="442" y1="350" y2="352.7" />
	<g fill="black" font-family="Arial" font-size="13.5" stroke="none" text-anchor="end" transform="rotate(-45,433,359)">
		<text x="433" y="363.5">VHW01025</text>
	</g>
	<rect fill="crimson" height="110.521486465821" stroke="crimson" width="9" x="428.5" y="239.478513534179" />
	<rect fill="blue" height="143.408778100627" stroke="blue" width="9" x="428.5" y="96.0697354335524" />
	<rect fill="lightseagreen" height="42.5791405413672" stroke="lightseagreen" width="9" x="428.5" y="53.4905948921852" />
	<rect fill="orange" height="1.67074476219605" stroke="orange" width="9" x="428.5" y="51.8198501299891" />
	<rect fill="mediumpurple" height="0.0191160727940052" stroke="mediumpurple" width="9" x="428.5" y="51.8007340571951" />
	<rect fill="palegreen" height="0.0305857164704082" stroke="palegreen" width="9" x="428.5" y="51.7701483407247" />
	<rect fill="dodgerblue" height="0.22174644441046" stroke="dodgerblue" width="9" x="428.5" y="51.5484018963143" />
	<rect fill="lawngreen" height="1.1125554366111" stroke="lawngreen" width="9" x="428.5" y="50.4358464597031" />
	<rect fill="yellow" height="0.435846459702" stroke="yellow" width="9" x="428.5" y="50.0000000000012" />
	<line stroke="black" stroke-width="2" x1="460" x2="460" y1="350" y2="352.7" />
	<g fill="black" font-family="Arial" font-size="13.5" stroke="none" text-anchor="end" transform="rotate(-45,451,359)">
		<text x="451" y="363.5">SMG01026</text>
	</g>
	<rect fill="crimson" height="128.945557424683" stroke="crimson" width="9" x="446.5" y="221.054442575317" />
	<rect fill="blue" height="135.796757914054" stroke="blue" width="9" x="446.5" y="85.2576846612632" />
	<rect fill="lightseagreen" height="32.1150022939287" stroke="lightseagreen" width="9" x="446.5" y="53.1426823673345" />
	<rect fill="orange" height="0.62318397308457" stroke="orange" width="9" x="446.5" y="52.5194983942499" />
	<rect fill="mediumpurple" height="0.0114696436764031" stroke="mediumpurple" width="9" x="446.5" y="52.5080287505735" />
	<rect fill="lightcoral" height="0.0229392873528062" stroke="lightcoral" width="9" x="446.5" y="52.4850894632207" />
	<rect fill="dodgerblue" height="0.240862517204465" stroke="dodgerblue" width="9" x="446.5" y="52.2442269460163" />
	<rect fill="lawngreen" height="1.81602691543049" stroke="lawngreen" width="9" x="446.5" y="50.4282000305858" />
	<rect fill="olive" height="0.172044655146047" stroke="olive" width="9" x="446.5" y="50.2561553754397" />
	<rect fill="yellow" height="0.2561553754398" stroke="yellow" width="9" x="446.5" y="49.9999999999999" />
	<line stroke="black" stroke-width="2" x1="478" x2="478" y1="350" y2="352.7" />
	<g fill="black" font-family="Arial" font-size="13.5" stroke="none" text-anchor="end" transform="rotate(-45,469,359)">
		<text x="469" y="363.5">KSS01027</text>
	</g>
	<rect fill="crimson" height="164.631442116532" stroke="crimson" width="9" x="464.5" y="185.368557883468" />
	<rect fill="blue" height="4.35464138247438" stroke="blue" width="9" x="464.5" y="181.013916500994" />
	<rect fill="lightseagreen" height="123.577764184126" stroke="lightseagreen" width="9" x="464.5" y="57.4361523168678" />
	<rect fill="orange" height="6.90472549319469" stroke="orange" width="9" x="464.5" y="50.5314268236731" />
	<rect fill="lightcoral" height="0.0267625019116073" stroke="lightcoral" width="9" x="464.5" y="50.5046643217615" />
	<rect fill="lawngreen" height="0.084110720293623" stroke="lawngreen" width="9" x="464.5" y="50.4205536014679" />
	<rect fill="olive" height="0.217923229851659" stroke="olive" width="9" x="464.5" y="50.2026303716162" />
	<rect fill="yellow" height="0.2026303716162" stroke="yellow" width="9" x="464.5" y="50" />
	<line stroke="black" stroke-width="2" x1="496" x2="496" y1="350" y2="352.7" />
	<g fill="black" font-family="Arial" font-size="13.5" stroke="none" text-anchor="end" transform="rotate(-45,487,359)">
		<text x="487" y="363.5">KRL01028</text>
	</g>
	<rect fill="crimson" height="179.993118213794" stroke="crimson" width="9" x="482.5" y="170.006881786206" />
	<rect fill="blue" height="107.531732680838" stroke="blue" width="9" x="482.5" y="62.4751491053678" />
	<rect fill="lightseagreen" height="7.71142376510169" stroke="lightseagreen" width="9" x="482.5" y="54.7637253402661" />
	<rect fill="orange" height="3.76968955497783" stroke="orange" width="9" x="482.5" y="50.9940357852883" />
	<rect fill="mediumpurple" height="0.0802875057348219" stroke="mediumpurple" width="9" x="482.5" y="50.9137482795534" />
	<rect fill="palegreen" height="0.00764642911760208" stroke="palegreen" width="9" x="482.5" y="50.9061018504358" />
	<rect fill="lightcoral" height="0.0344089310292093" stroke="lightcoral" width="9" x="482.5" y="50.8716929194066" />
	<rect fill="dodgerblue" height="0.0382321455880104" stroke="dodgerblue" width="9" x="482.5" y="50.8334607738186" />
	<rect fill="lawngreen" height="0.175867869704848" stroke="lawngreen" width="9" x="482.5" y="50.6575929041138" />
	<rect fill="olive" height="0.252332160880869" stroke="olive" width="9" x="482.5" y="50.4052607432329" />
	<rect fill="yellow" height="0.405260743233" stroke="yellow" width="9" x="482.5" y="49.9999999999999" />
	<line stroke="black" stroke-width="2" x1="514" x2="514" y1="350" y2="352.7" />
	<g fill="black" font-family="Arial" font-size="13.5" stroke="none" text-anchor="end" transform="rotate(-45,505,359)">
		<text x="505" y="363.5">PBB01029</text>
	</g>
	<rect fill="crimson" height="51.2769536626395" stroke="crimson" width="9" x="500.5" y="298.723046337361" />
	<rect fill="blue" height="42.1241780088699" stroke="blue" width="9" x="500.5" y="256.598868328491" />
	<rect fill="lightseagreen" height="203.47530203395" stroke="lightseagreen" width="9" x="500.5" y="53.1235662945405" />
	<rect fill="orange" height="1.91925370851812" stroke="orange" width="9" x="500.5" y="51.2043125860223" />
	<rect fill="palegreen" height="0.0114696436764031" stroke="palegreen" width="9" x="500.5" y="51.1928429423459" />
	<rect fill="lightcoral" height="0.0764642911760208" stroke="lightcoral" width="9" x="500.5" y="51.1163786511699" />
	<rect fill="dodgerblue" height="0.0458785747056126" stroke="dodgerblue" width="9" x="500.5" y="51.0705000764643" />
	<rect fill="lawngreen" height="0.344089310292093" stroke="lawngreen" width="9" x="500.5" y="50.7264107661722" />
	<rect fill="olive" height="0.424376816026914" stroke="olive" width="9" x="500.5" y="50.3020339501453" />
	<rect fill="yellow" height="0.302033950146" stroke="yellow" width="9" x="500.5" y="49.9999999999993" />
	<line stroke="black" stroke-width="2" x1="532" x2="532" y1="350" y2="352.7" />
	<g fill="black" font-family="Arial" font-size="13.5" stroke="none" text-anchor="end" transform="rotate(-45,523,359)">
		<text x="523" y="363.5">DLD01030</text>
	</g>
	<rect fill="crimson" height="111.634041902431" stroke="crimson" width="9" x="518.5" y="238.365958097569" />
	<rect fill="blue" height="176.827496559107" stroke="blue" width="9" x="518.5" y="61.5384615384617" />
	<rect fill="lightseagreen" height="3.69704847836061" stroke="lightseagreen" width="9" x="518.5" y="57.8414130601011" />
	<rect fill="orange" height="1.02844471631748" stroke="orange" width="9" x="518.5" y="56.8129683437837" />
	<rect fill="lightcoral" height="5.63924147423154" stroke="lightcoral" width="9" x="518.5" y="51.1737268695521" />
	<rect fill="dodgerblue" height="0.114696436764031" stroke="dodgerblue" width="9" x="518.5" y="51.0590304327881" />
	<rect fill="lawngreen" height="0.619360758525768" stroke="lawngreen" width="9" x="518.5" y="50.4396696742623" />
	<rect fill="olive" height="0.259978589998471" stroke="olive" width="9" x="518.5" y="50.1796910842639" />
	<rect fill="yellow" height="0.1796910842637" stroke="yellow" width="9" x="518.5" y="50.0000000000002" />
	<line stroke="black" stroke-width="2" x1="550" x2="550" y1="350" y2="352.7" />
	<g fill="black" font-family="Arial" font-size="13.5" stroke="none" text-anchor="end" transform="rotate(-45,541,359)">
		<text x="541" y="363.5">PDD01031</text>
	</g>
	<rect fill="crimson" height="109.699495335678" stroke="crimson" width="9" x="536.5" y="240.300504664322" />
	<rect fill="blue" height="176.510169750727" stroke="blue" width="9" x="536.5" y="63.7903349135951" />
	<rect fill="lightseagreen" height="7.61584340113167" stroke="lightseagreen" width="9" x="536.5" y="56.1744915124634" />
	<rect fill="orange" height="3.7123413365958" stroke="orange" width="9" x="536.5" y="52.4621501758676" />
	<rect fill="mediumpurple" height="0.114696436764031" stroke="mediumpurple" width="9" x="536.5" y="52.3474537391036" />
	<rect fill="palegreen" height="0.282917877351277" stroke="palegreen" width="9" x="536.5" y="52.0645358617523" />
	<rect fill="lightcoral" height="0.084110720293623" stroke="lightcoral" width="9" x="536.5" y="51.9804251414587" />
	<rect fill="dodgerblue" height="0.0497017892644134" stroke="dodgerblue" width="9" x="536.5" y="51.9307233521943" />
	<rect fill="lawngreen" height="0.424376816026914" stroke="lawngreen" width="9" x="536.5" y="51.5063465361674" />
	<rect fill="olive" height="0.967273283376663" stroke="olive" width="9" x="536.5" y="50.5390732527907" />
	<rect fill="yellow" height="0.539073252792" stroke="yellow" width="9" x="536.5" y="49.9999999999987" />
	<line stroke="black" stroke-width="2" x1="100" x2="550" y1="350" y2="350" />
	<line stroke="black" stroke-width="2" x1="100" x2="100" y1="50" y2="352.7" />
	<rect fill="yellow" height="7" stroke="yellow" width="7" x="562" y="97" />
	<text fill="black" font-family="Arial" font-size="10" stroke="none" x="572.5" y="104">Others</text>
	<rect fill="olive" height="7" stroke="olive" width="7" x="562" y="109" />
	<text fill="black" font-family="Arial" font-size="10" stroke="none" x="572.5" y="116">Halobacterota</text>
	<rect fill="lawngreen" height="7" stroke="lawngreen" width="7" x="562" y="121" />
	<text fill="black" font-family="Arial" font-size="10" stroke="none" x="572.5" y="128">Desulfobacterota</text>
	<rect fill="dodgerblue" height="7" stroke="dodgerblue" width="7" x="562" y="133" />
	<text fill="black" font-family="Arial" font-size="10" stroke="none" x="572.5" y="140">Cyanobacteria</text>
	<rect fill="lightcoral" height="7" stroke="lightcoral" width="7" x="562" y="145" />
	<text fill="black" font-family="Arial" font-size="10" stroke="none" x="572.5" y="152">Fusobacteriota</text>
	<rect fill="palegreen" height="7" stroke="palegreen" width="7" x="562" y="157" />
	<text fill="black" font-family="Arial" font-size="10" stroke="none" x="572.5" y="164">Spirochaetota</text>
	<rect fill="mediumpurple" height="7" stroke="mediumpurple" width="7" x="562" y="169" />
	<text fill="black" font-family="Arial" font-size="10" stroke="none" x="572.5" y="176">Verrucomicrobiota</text>
	<rect fill="orange" height="7" stroke="orange" width="7" x="562" y="181" />
	<text fill="black" font-family="Arial" font-size="10" stroke="none" x="572.5" y="188">Actinobacteriota</text>
	<rect fill="lightseagreen" height="7" stroke="lightseagreen" width="7" x="562" y="193" />
	<text fill="black" font-family="Arial" font-size="10" stroke="none" x="572.5" y="200">Proteobacteria</text>
	<rect fill="blue" height="7" stroke="blue" width="7" x="562" y="205" />
	<text fill="black" font-family="Arial" font-size="10" stroke="none" x="572.5" y="212">Bacteroidota</text>
	<rect fill="crimson" height="7" stroke="crimson" width="7" x="562" y="217" />
	<text fill="black" font-family="Arial" font-size="10" stroke="none" x="572.5" y="224">Firmicutes</text>
	<!-- 
	Generated using the Perl SVG Module V2.50
	by Ronan Oger
	Info: http://www.roitsystems.com/
 -->
</svg>