<?xml version="1.0" encoding="UTF-8" standalone="yes"?>
<!DOCTYPE svg PUBLIC "-//W3C//DTD SVG 1.0//EN" "http://www.w3.org/TR/2001/REC-SVG-20010904/DTD/svg10.dtd">
<svg height="450" width="718" xmlns="http://www.w3.org/2000/svg" xmlns:svg="http://www.w3.org/2000/svg" xmlns:xlink="http://www.w3.org/1999/xlink">
	<text fill="black" font-family="Arial" font-size="15" stroke="none" text-anchor="end" x="92.5" y="355">0</text>
	<line stroke="black" stroke-width="2" x1="100" x2="95" y1="350" y2="350" />
	<text fill="black" font-family="Arial" font-size="15" stroke="none" text-anchor="end" x="92.5" y="280">0.25</text>
	<line stroke="black" stroke-width="2" x1="100" x2="95" y1="275" y2="275" />
	<line stroke="black" stroke-dasharray="3 2" stroke-width="0.5" x1="100" x2="550" y1="275" y2="275" />
	<text fill="black" font-family="Arial" font-size="15" stroke="none" text-anchor="end" x="92.5" y="205">0.5</text>
	<line stroke="black" stroke-width="2" x1="100" x2="95" y1="200" y2="200" />
	<line stroke="black" stroke-dasharray="3 2" stroke-width="0.5" x1="100" x2="550" y1="200" y2="200" />
	<text fill="black" font-family="Arial" font-size="15" stroke="none" text-anchor="end" x="92.5" y="130">0.75</text>
	<line stroke="black" stroke-width="2" x1="100" x2="95" y1="125" y2="125" />
	<line stroke="black" stroke-dasharray="3 2" stroke-width="0.5" x1="100" x2="550" y1="125" y2="125" />
	<text fill="black" font-family="Arial" font-size="15" stroke="none" text-anchor="end" x="92.5" y="55">1</text>
	<line stroke="black" stroke-width="2" x1="100" x2="95" y1="50" y2="50" />
	<line stroke="black" stroke-width="1" x1="100" x2="100" y1="50" y2="350" />
	<text fill="black" font-family="Arial" font-size="15" stroke="none" text-anchor="middle" x="325" y="421.26581755321">sample Name</text>
	<g transform="rotate(-90,47.5,200)">
		<text fill="black" font-family="Arial" font-size="15" stroke="none" text-anchor="middle" x="47.5" y="200">Relative Abundance</text>
	</g>
	<line stroke="black" stroke-width="2" x1="118" x2="118" y1="350" y2="352.7" />
	<g fill="black" font-family="Arial" font-size="13.5" stroke="none" text-anchor="end" transform="rotate(-45,109,359)">
		<text x="109" y="363.5">PRK01002</text>
	</g>
	<rect fill="crimson" height="31.5376968955497" stroke="crimson" width="9" x="104.5" y="318.46230310445" />
	<rect fill="blue" height="0.974919712494264" stroke="blue" width="9" x="104.5" y="317.487383391956" />
	<rect fill="lightseagreen" height="90.8969261354946" stroke="lightseagreen" width="9" x="104.5" y="226.590457256461" />
	<rect fill="orange" height="9.70331855023704" stroke="orange" width="9" x="104.5" y="216.887138706224" />
	<rect fill="palegreen" height="0.179691084263649" stroke="palegreen" width="9" x="104.5" y="216.707447621961" />
	<rect fill="lightcoral" height="0.137635724116837" stroke="lightcoral" width="9" x="104.5" y="216.569811897844" />
	<rect fill="dodgerblue" height="0.0764642911760208" stroke="dodgerblue" width="9" x="104.5" y="216.493347606668" />
	<rect fill="lawngreen" height="1.26548401896314" stroke="lawngreen" width="9" x="104.5" y="215.227863587705" />
	<rect fill="yellow" height="165.2278635876" stroke="yellow" width="9" x="104.5" y="50.0000000001047" />
	<line stroke="black" stroke-width="2" x1="136" x2="136" y1="350" y2="352.7" />
	<g fill="black" font-family="Arial" font-size="13.5" stroke="none" text-anchor="end" transform="rotate(-45,127,359)">
		<text x="127" y="363.5">SMG01004</text>
	</g>
	<rect fill="crimson" height="25.768466126319" stroke="crimson" width="9" x="122.5" y="324.231533873681" />
	<rect fill="blue" height="0.0917571494112249" stroke="blue" width="9" x="122.5" y="324.13977672427" />
	<rect fill="lightseagreen" height="6.32359688025693" stroke="lightseagreen" width="9" x="122.5" y="317.816179844013" />
	<rect fill="orange" height="0.0879339348524238" stroke="orange" width="9" x="122.5" y="317.72824590916" />
	<rect fill="palegreen" height="0.0802875057348219" stroke="palegreen" width="9" x="122.5" y="317.647958403426" />
	<rect fill="lightcoral" height="0.0573482183820156" stroke="lightcoral" width="9" x="122.5" y="317.590610185044" />
	<rect fill="dodgerblue" height="0.0267625019116073" stroke="dodgerblue" width="9" x="122.5" y="317.563847683132" />
	<rect fill="lawngreen" height="0.194983942498853" stroke="lawngreen" width="9" x="122.5" y="317.368863740633" />
	<rect fill="yellow" height="267.3688637406" stroke="yellow" width="9" x="122.5" y="50.0000000000331" />
	<line stroke="black" stroke-width="2" x1="154" x2="154" y1="350" y2="352.7" />
	<g fill="black" font-family="Arial" font-size="13.5" stroke="none" text-anchor="end" transform="rotate(-45,145,359)">
		<text x="145" y="363.5">SMG01005</text>
	</g>
	<rect fill="crimson" height="9.61538461538463" stroke="crimson" width="9" x="140.5" y="340.384615384615" />
	<rect fill="blue" height="0.152928582352042" stroke="blue" width="9" x="140.5" y="340.231686802263" />
	<rect fill="lightseagreen" height="1.04373757455268" stroke="lightseagreen" width="9" x="140.5" y="339.187949227711" />
	<rect fill="orange" height="0.175867869704848" stroke="orange" width="9" x="140.5" y="339.012081358006" />
	<rect fill="mediumpurple" height="0.279094662792476" stroke="mediumpurple" width="9" x="140.5" y="338.732986695213" />
	<rect fill="palegreen" height="0.095580363970026" stroke="palegreen" width="9" x="140.5" y="338.637406331243" />
	<rect fill="lightcoral" height="0.0420553601468115" stroke="lightcoral" width="9" x="140.5" y="338.595350971096" />
	<rect fill="dodgerblue" height="0.0420553601468115" stroke="dodgerblue" width="9" x="140.5" y="338.55329561095" />
	<rect fill="lawngreen" height="0.160575011469644" stroke="lawngreen" width="9" x="140.5" y="338.39272059948" />
	<rect fill="yellow" height="288.3927205995" stroke="yellow" width="9" x="140.5" y="49.9999999999799" />
	<line stroke="black" stroke-width="2" x1="172" x2="172" y1="350" y2="352.7" />
	<g fill="black" font-family="Arial" font-size="13.5" stroke="none" text-anchor="end" transform="rotate(-45,163,359)">
		<text x="163" y="363.5">LPK01006</text>
	</g>
	<rect fill="crimson" height="2.22511087322221" stroke="crimson" width="9" x="158.5" y="347.774889126778" />
	<rect fill="blue" height="0.627007187643372" stroke="blue" width="9" x="158.5" y="347.147881939134" />
	<rect fill="lightseagreen" height="62.4866187490443" stroke="lightseagreen" width="9" x="158.5" y="284.66126319009" />
	<rect fill="orange" height="7.13029515216393" stroke="orange" width="9" x="158.5" y="277.530968037926" />
	<rect fill="palegreen" height="0.103226793087628" stroke="palegreen" width="9" x="158.5" y="277.427741244839" />
	<rect fill="lightcoral" height="0.0764642911760208" stroke="lightcoral" width="9" x="158.5" y="277.351276953663" />
	<rect fill="dodgerblue" height="4.95488606820615" stroke="dodgerblue" width="9" x="158.5" y="272.396390885456" />
	<rect fill="lawngreen" height="0.29438752102768" stroke="lawngreen" width="9" x="158.5" y="272.102003364429" />
	<rect fill="yellow" height="222.1020033645" stroke="yellow" width="9" x="158.5" y="49.9999999999287" />
	<line stroke="black" stroke-width="2" x1="190" x2="190" y1="350" y2="352.7" />
	<g fill="black" font-family="Arial" font-size="13.5" stroke="none" text-anchor="end" transform="rotate(-45,181,359)">
		<text x="181" y="363.5">RRM01008</text>
	</g>
	<rect fill="crimson" height="89.528215323444" stroke="crimson" width="9" x="176.5" y="260.471784676556" />
	<rect fill="blue" height="0.397614314115309" stroke="blue" width="9" x="176.5" y="260.074170362441" />
	<rect fill="lightseagreen" height="3.47147881939134" stroke="lightseagreen" width="9" x="176.5" y="256.602691543049" />
	<rect fill="orange" height="0.466432176173727" stroke="orange" width="9" x="176.5" y="256.136259366876" />
	<rect fill="palegreen" height="0.187337513381251" stroke="palegreen" width="9" x="176.5" y="255.948921853494" />
	<rect fill="lightcoral" height="0.103226793087628" stroke="lightcoral" width="9" x="176.5" y="255.845695060407" />
	<rect fill="dodgerblue" height="0.133812509558036" stroke="dodgerblue" width="9" x="176.5" y="255.711882550849" />
	<rect fill="lawngreen" height="0.51995717999694" stroke="lawngreen" width="9" x="176.5" y="255.191925370852" />
	<rect fill="yellow" height="205.191925371" stroke="yellow" width="9" x="176.5" y="49.9999999998518" />
	<line stroke="black" stroke-width="2" x1="208" x2="208" y1="350" y2="352.7" />
	<g fill="black" font-family="Arial" font-size="13.5" stroke="none" text-anchor="end" transform="rotate(-45,199,359)">
		<text x="199" y="363.5">RSM01009</text>
	</g>
	<rect fill="crimson" height="135.781465055819" stroke="crimson" width="9" x="194.5" y="214.218534944181" />
	<rect fill="blue" height="3.51735739409697" stroke="blue" width="9" x="194.5" y="210.701177550084" />
	<rect fill="lightseagreen" height="3.49059489218535" stroke="lightseagreen" width="9" x="194.5" y="207.210582657899" />
	<rect fill="orange" height="0.630830402202171" stroke="orange" width="9" x="194.5" y="206.579752255697" />
	<rect fill="mediumpurple" height="0.187337513381251" stroke="mediumpurple" width="9" x="194.5" y="206.392414742315" />
	<rect fill="palegreen" height="33.8316256308303" stroke="palegreen" width="9" x="194.5" y="172.560789111485" />
	<rect fill="lightcoral" height="9.32482030891575" stroke="lightcoral" width="9" x="194.5" y="163.235968802569" />
	<rect fill="dodgerblue" height="0.217923229851659" stroke="dodgerblue" width="9" x="194.5" y="163.018045572718" />
	<rect fill="lawngreen" height="0.084110720293623" stroke="lawngreen" width="9" x="194.5" y="162.933934852424" />
	<rect fill="yellow" height="112.9339348524" stroke="yellow" width="9" x="194.5" y="50.0000000000241" />
	<line stroke="black" stroke-width="2" x1="226" x2="226" y1="350" y2="352.7" />
	<g fill="black" font-family="Arial" font-size="13.5" stroke="none" text-anchor="end" transform="rotate(-45,217,359)">
		<text x="217" y="363.5">MSY01012</text>
	</g>
	<rect fill="crimson" height="18.5387673956262" stroke="crimson" width="9" x="212.5" y="331.461232604374" />
	<rect fill="blue" height="0.0267625019116073" stroke="blue" width="9" x="212.5" y="331.434470102462" />
	<rect fill="lightseagreen" height="0.867869704847835" stroke="lightseagreen" width="9" x="212.5" y="330.566600397614" />
	<rect fill="orange" height="0.114696436764031" stroke="orange" width="9" x="212.5" y="330.45190396085" />
	<rect fill="mediumpurple" height="0.0649946474996178" stroke="mediumpurple" width="9" x="212.5" y="330.386909313351" />
	<rect fill="palegreen" height="0.0649946474996178" stroke="palegreen" width="9" x="212.5" y="330.321914665851" />
	<rect fill="lightcoral" height="0.0420553601468115" stroke="lightcoral" width="9" x="212.5" y="330.279859305704" />
	<rect fill="dodgerblue" height="0.0305857164704082" stroke="dodgerblue" width="9" x="212.5" y="330.249273589234" />
	<rect fill="lawngreen" height="18.0990977213641" stroke="lawngreen" width="9" x="212.5" y="312.15017586787" />
	<rect fill="yellow" height="262.150175868" stroke="yellow" width="9" x="212.5" y="49.9999999998697" />
	<line stroke="black" stroke-width="2" x1="244" x2="244" y1="350" y2="352.7" />
	<g fill="black" font-family="Arial" font-size="13.5" stroke="none" text-anchor="end" transform="rotate(-45,235,359)">
		<text x="235" y="363.5">YRB01013</text>
	</g>
	<rect fill="crimson" height="61.339654381404" stroke="crimson" width="9" x="230.5" y="288.660345618596" />
	<rect fill="blue" height="1.51399296528521" stroke="blue" width="9" x="230.5" y="287.146352653311" />
	<rect fill="lightseagreen" height="0.799051842789417" stroke="lightseagreen" width="9" x="230.5" y="286.347300810521" />
	<rect fill="orange" height="0.554366111026152" stroke="orange" width="9" x="230.5" y="285.792934699495" />
	<rect fill="mediumpurple" height="24.3118213794158" stroke="mediumpurple" width="9" x="230.5" y="261.481113320079" />
	<rect fill="lightcoral" height="0.420553601468115" stroke="lightcoral" width="9" x="230.5" y="261.060559718611" />
	<rect fill="dodgerblue" height="0.122342865881633" stroke="dodgerblue" width="9" x="230.5" y="260.93821685273" />
	<rect fill="lawngreen" height="2.27098944792782" stroke="lawngreen" width="9" x="230.5" y="258.667227404802" />
	<rect fill="olive" height="0.0917571494112249" stroke="olive" width="9" x="230.5" y="258.575470255391" />
	<rect fill="yellow" height="208.5754702554" stroke="yellow" width="9" x="230.5" y="49.9999999999906" />
	<line stroke="black" stroke-width="2" x1="262" x2="262" y1="350" y2="352.7" />
	<g fill="black" font-family="Arial" font-size="13.5" stroke="none" text-anchor="end" transform="rotate(-45,253,359)">
		<text x="253" y="363.5">MML01014</text>
	</g>
	<rect fill="crimson" height="96.7770301269306" stroke="crimson" width="9" x="248.5" y="253.222969873069" />
	<rect fill="blue" height="17.3344548096039" stroke="blue" width="9" x="248.5" y="235.888515063466" />
	<rect fill="lightseagreen" height="3.32237345159811" stroke="lightseagreen" width="9" x="248.5" y="232.566141611867" />
	<rect fill="orange" height="2.16393944028139" stroke="orange" width="9" x="248.5" y="230.402202171586" />
	<rect fill="mediumpurple" height="54.7254931946781" stroke="mediumpurple" width="9" x="248.5" y="175.676708976908" />
	<rect fill="lightcoral" height="0.51995717999694" stroke="lightcoral" width="9" x="248.5" y="175.156751796911" />
	<rect fill="dodgerblue" height="0.0879339348524238" stroke="dodgerblue" width="9" x="248.5" y="175.068817862059" />
	<rect fill="lawngreen" height="0.107050007646429" stroke="lawngreen" width="9" x="248.5" y="174.961767854412" />
	<rect fill="olive" height="0.152928582352042" stroke="olive" width="9" x="248.5" y="174.80883927206" />
	<rect fill="yellow" height="124.808839272" stroke="yellow" width="9" x="248.5" y="50.0000000000601" />
	<line stroke="black" stroke-width="2" x1="280" x2="280" y1="350" y2="352.7" />
	<g fill="black" font-family="Arial" font-size="13.5" stroke="none" text-anchor="end" transform="rotate(-45,271,359)">
		<text x="271" y="363.5">RRG01015</text>
	</g>
	<rect fill="crimson" height="5.8915736351124" stroke="crimson" width="9" x="266.5" y="344.108426364888" />
	<rect fill="blue" height="1.1163786511699" stroke="blue" width="9" x="266.5" y="342.992047713718" />
	<rect fill="lightseagreen" height="71.2341336595809" stroke="lightseagreen" width="9" x="266.5" y="271.757914054137" />
	<rect fill="orange" height="59.4853953203853" stroke="orange" width="9" x="266.5" y="212.272518733751" />
	<rect fill="mediumpurple" height="6.79002905643066" stroke="mediumpurple" width="9" x="266.5" y="205.482489677321" />
	<rect fill="lightcoral" height="0.164398226028445" stroke="lightcoral" width="9" x="266.5" y="205.318091451292" />
	<rect fill="dodgerblue" height="18.2520263037162" stroke="dodgerblue" width="9" x="266.5" y="187.066065147576" />
	<rect fill="lawngreen" height="0.317326808380485" stroke="lawngreen" width="9" x="266.5" y="186.748738339196" />
	<rect fill="olive" height="0.0917571494112249" stroke="olive" width="9" x="266.5" y="186.656981189785" />
	<rect fill="yellow" height="136.6569811899" stroke="yellow" width="9" x="266.5" y="49.9999999998845" />
	<line stroke="black" stroke-width="2" x1="298" x2="298" y1="350" y2="352.7" />
	<g fill="black" font-family="Arial" font-size="13.5" stroke="none" text-anchor="end" transform="rotate(-45,289,359)">
		<text x="289" y="363.5">AEO01016</text>
	</g>
	<rect fill="crimson" height="1.74720905337208" stroke="crimson" width="9" x="284.5" y="348.252790946628" />
	<rect fill="blue" height="127.194525156752" stroke="blue" width="9" x="284.5" y="221.058265789876" />
	<rect fill="lightseagreen" height="2.52714482336749" stroke="lightseagreen" width="9" x="284.5" y="218.531120966509" />
	<rect fill="orange" height="0.382321455880104" stroke="orange" width="9" x="284.5" y="218.148799510628" />
	<rect fill="mediumpurple" height="0.275271448233675" stroke="mediumpurple" width="9" x="284.5" y="217.873528062395" />
	<rect fill="lightcoral" height="0.237039302645665" stroke="lightcoral" width="9" x="284.5" y="217.636488759749" />
	<rect fill="dodgerblue" height="0.0573482183820156" stroke="dodgerblue" width="9" x="284.5" y="217.579140541367" />
	<rect fill="lawngreen" height="0.573482183820156" stroke="lawngreen" width="9" x="284.5" y="217.005658357547" />
	<rect fill="olive" height="0.11087322220523" stroke="olive" width="9" x="284.5" y="216.894785135342" />
	<rect fill="yellow" height="166.8947851353" stroke="yellow" width="9" x="284.5" y="50.0000000000418" />
	<line stroke="black" stroke-width="2" x1="316" x2="316" y1="350" y2="352.7" />
	<g fill="black" font-family="Arial" font-size="13.5" stroke="none" text-anchor="end" transform="rotate(-45,307,359)">
		<text x="307" y="363.5">AR001017</text>
	</g>
	<rect fill="crimson" height="5.188102156293" stroke="crimson" width="9" x="302.5" y="344.811897843707" />
	<rect fill="blue" height="1.55604832543202" stroke="blue" width="9" x="302.5" y="343.255849518275" />
	<rect fill="lightseagreen" height="1.8351429882245" stroke="lightseagreen" width="9" x="302.5" y="341.42070653005" />
	<rect fill="orange" height="0.688178620584186" stroke="orange" width="9" x="302.5" y="340.732527909466" />
	<rect fill="mediumpurple" height="0.22174644441046" stroke="mediumpurple" width="9" x="302.5" y="340.510781465056" />
	<rect fill="lightcoral" height="26.5445786817556" stroke="lightcoral" width="9" x="302.5" y="313.9662027833" />
	<rect fill="dodgerblue" height="0.107050007646429" stroke="dodgerblue" width="9" x="302.5" y="313.859152775654" />
	<rect fill="lawngreen" height="0.149105367793241" stroke="lawngreen" width="9" x="302.5" y="313.71004740786" />
	<rect fill="olive" height="17.4453280318091" stroke="olive" width="9" x="302.5" y="296.264719376051" />
	<rect fill="yellow" height="246.264719376" stroke="yellow" width="9" x="302.5" y="50.0000000000514" />
	<line stroke="black" stroke-width="2" x1="334" x2="334" y1="350" y2="352.7" />
	<g fill="black" font-family="Arial" font-size="13.5" stroke="none" text-anchor="end" transform="rotate(-45,325,359)">
		<text x="325" y="363.5">EMS01018</text>
	</g>
	<rect fill="crimson" height="35.7088239792018" stroke="crimson" width="9" x="320.5" y="314.291176020798" />
	<rect fill="blue" height="1.51399296528521" stroke="blue" width="9" x="320.5" y="312.777183055513" />
	<rect fill="lightseagreen" height="3.80409848600703" stroke="lightseagreen" width="9" x="320.5" y="308.973084569506" />
	<rect fill="orange" height="1.31518580822756" stroke="orange" width="9" x="320.5" y="307.657898761278" />
	<rect fill="mediumpurple" height="0.33261966661569" stroke="mediumpurple" width="9" x="320.5" y="307.325279094663" />
	<rect fill="lightcoral" height="0.355558953968496" stroke="lightcoral" width="9" x="320.5" y="306.969720140694" />
	<rect fill="dodgerblue" height="0.194983942498853" stroke="dodgerblue" width="9" x="320.5" y="306.774736198195" />
	<rect fill="lawngreen" height="16.1339654381404" stroke="lawngreen" width="9" x="320.5" y="290.640770760055" />
	<rect fill="olive" height="0.0994035785288271" stroke="olive" width="9" x="320.5" y="290.541367181526" />
	<rect fill="yellow" height="240.5413671816" stroke="yellow" width="9" x="320.5" y="49.9999999999262" />
	<line stroke="black" stroke-width="2" x1="352" x2="352" y1="350" y2="352.7" />
	<g fill="black" font-family="Arial" font-size="13.5" stroke="none" text-anchor="end" transform="rotate(-45,343,359)">
		<text x="343" y="363.5">APA01019</text>
	</g>
	<rect fill="crimson" height="22.2166998011928" stroke="crimson" width="9" x="338.5" y="327.783300198807" />
	<rect fill="blue" height="1.90013763572412" stroke="blue" width="9" x="338.5" y="325.883162563083" />
	<rect fill="lightseagreen" height="2.82153234439517" stroke="lightseagreen" width="9" x="338.5" y="323.061630218688" />
	<rect fill="orange" height="1.34959473925677" stroke="orange" width="9" x="338.5" y="321.712035479431" />
	<rect fill="mediumpurple" height="0.43584645970332" stroke="mediumpurple" width="9" x="338.5" y="321.276189019728" />
	<rect fill="lightcoral" height="0.305857164704082" stroke="lightcoral" width="9" x="338.5" y="320.970331855024" />
	<rect fill="dodgerblue" height="0.305857164704082" stroke="dodgerblue" width="9" x="338.5" y="320.66447469032" />
	<rect fill="lawngreen" height="1.53693225263802" stroke="lawngreen" width="9" x="338.5" y="319.127542437682" />
	<rect fill="olive" height="0.11087322220523" stroke="olive" width="9" x="338.5" y="319.016669215476" />
	<rect fill="yellow" height="269.0166692154" stroke="yellow" width="9" x="338.5" y="50.0000000000765" />
	<line stroke="black" stroke-width="2" x1="370" x2="370" y1="350" y2="352.7" />
	<g fill="black" font-family="Arial" font-size="13.5" stroke="none" text-anchor="end" transform="rotate(-45,361,359)">
		<text x="361" y="363.5">MRK01020</text>
	</g>
	<rect fill="crimson" height="94.0625477901819" stroke="crimson" width="9" x="356.5" y="255.937452209818" />
	<rect fill="blue" height="1.37635724116838" stroke="blue" width="9" x="356.5" y="254.56109496865" />
	<rect fill="lightseagreen" height="1.01697507264108" stroke="lightseagreen" width="9" x="356.5" y="253.544119896009" />
	<rect fill="orange" height="0.554366111026152" stroke="orange" width="9" x="356.5" y="252.989753784982" />
	<rect fill="mediumpurple" height="1.00168221440587" stroke="mediumpurple" width="9" x="356.5" y="251.988071570577" />
	<rect fill="lightcoral" height="0.252332160880869" stroke="lightcoral" width="9" x="356.5" y="251.735739409696" />
	<rect fill="dodgerblue" height="0.149105367793241" stroke="dodgerblue" width="9" x="356.5" y="251.586634041902" />
	<rect fill="lawngreen" height="2.64184126013152" stroke="lawngreen" width="9" x="356.5" y="248.944792781771" />
	<rect fill="olive" height="0.0994035785288271" stroke="olive" width="9" x="356.5" y="248.845389203242" />
	<rect fill="yellow" height="198.8453892033" stroke="yellow" width="9" x="356.5" y="49.9999999999421" />
	<line stroke="black" stroke-width="2" x1="388" x2="388" y1="350" y2="352.7" />
	<g fill="black" font-family="Arial" font-size="13.5" stroke="none" text-anchor="end" transform="rotate(-45,379,359)">
		<text x="379" y="363.5">SSM01021</text>
	</g>
	<rect fill="crimson" height="27.2365805168986" stroke="crimson" width="9" x="374.5" y="322.763419483101" />
	<rect fill="blue" height="0.141458938675639" stroke="blue" width="9" x="374.5" y="322.621960544426" />
	<rect fill="yellow" height="272.6219605443" stroke="yellow" width="9" x="374.5" y="50.0000000001257" />
	<line stroke="black" stroke-width="2" x1="406" x2="406" y1="350" y2="352.7" />
	<g fill="black" font-family="Arial" font-size="13.5" stroke="none" text-anchor="end" transform="rotate(-45,397,359)">
		<text x="397" y="363.5">TSY01022</text>
	</g>
	<rect fill="crimson" height="64.6734974766783" stroke="crimson" width="9" x="392.5" y="285.326502523322" />
	<rect fill="blue" height="0.577305398378958" stroke="blue" width="9" x="392.5" y="284.749197124943" />
	<rect fill="lightseagreen" height="0.500841107202936" stroke="lightseagreen" width="9" x="392.5" y="284.24835601774" />
	<rect fill="orange" height="0.416730386909313" stroke="orange" width="9" x="392.5" y="283.831625630831" />
	<rect fill="mediumpurple" height="0.129989294999235" stroke="mediumpurple" width="9" x="392.5" y="283.701636335831" />
	<rect fill="lightcoral" height="0.11087322220523" stroke="lightcoral" width="9" x="392.5" y="283.590763113626" />
	<rect fill="dodgerblue" height="0.103226793087628" stroke="dodgerblue" width="9" x="392.5" y="283.487536320538" />
	<rect fill="lawngreen" height="0.43584645970332" stroke="lawngreen" width="9" x="392.5" y="283.051689860835" />
	<rect fill="yellow" height="233.0516898609" stroke="yellow" width="9" x="392.5" y="49.9999999999351" />
	<line stroke="black" stroke-width="2" x1="424" x2="424" y1="350" y2="352.7" />
	<g fill="black" font-family="Arial" font-size="13.5" stroke="none" text-anchor="end" transform="rotate(-45,415,359)">
		<text x="415" y="363.5">DBM01024</text>
	</g>
	<rect fill="crimson" height="8.49900596421471" stroke="crimson" width="9" x="410.5" y="341.500994035785" />
	<rect fill="blue" height="2.5768466126319" stroke="blue" width="9" x="410.5" y="338.924147423153" />
	<rect fill="lightseagreen" height="47.0867105061936" stroke="lightseagreen" width="9" x="410.5" y="291.83743691696" />
	<rect fill="orange" height="14.5970331855024" stroke="orange" width="9" x="410.5" y="277.240403731457" />
	<rect fill="mediumpurple" height="0.951980425141458" stroke="mediumpurple" width="9" x="410.5" y="276.288423306316" />
	<rect fill="palegreen" height="1.1125554366111" stroke="palegreen" width="9" x="410.5" y="275.175867869705" />
	<rect fill="lightcoral" height="0.894632206759443" stroke="lightcoral" width="9" x="410.5" y="274.281235662945" />
	<rect fill="dodgerblue" height="0.191160727940052" stroke="dodgerblue" width="9" x="410.5" y="274.090074935005" />
	<rect fill="lawngreen" height="0.233216088086863" stroke="lawngreen" width="9" x="410.5" y="273.856858846918" />
	<rect fill="olive" height="0.168221440587246" stroke="olive" width="9" x="410.5" y="273.688637406331" />
	<rect fill="yellow" height="223.6886374062" stroke="yellow" width="9" x="410.5" y="50.0000000001313" />
	<line stroke="black" stroke-width="2" x1="442" x2="442" y1="350" y2="352.7" />
	<g fill="black" font-family="Arial" font-size="13.5" stroke="none" text-anchor="end" transform="rotate(-45,433,359)">
		<text x="433" y="363.5">VHW01025</text>
	</g>
	<rect fill="crimson" height="69.4028138859153" stroke="crimson" width="9" x="428.5" y="280.597186114085" />
	<rect fill="blue" height="0.829637559259827" stroke="blue" width="9" x="428.5" y="279.767548554825" />
	<rect fill="lightseagreen" height="0.707294693378193" stroke="lightseagreen" width="9" x="428.5" y="279.060253861447" />
	<rect fill="orange" height="0.573482183820156" stroke="orange" width="9" x="428.5" y="278.486771677627" />
	<rect fill="mediumpurple" height="0.485548248967731" stroke="mediumpurple" width="9" x="428.5" y="278.001223428659" />
	<rect fill="lightcoral" height="0.229392873528062" stroke="lightcoral" width="9" x="428.5" y="277.771830555131" />
	<rect fill="dodgerblue" height="0.137635724116837" stroke="dodgerblue" width="9" x="428.5" y="277.634194831014" />
	<rect fill="lawngreen" height="3.07004129071725" stroke="lawngreen" width="9" x="428.5" y="274.564153540297" />
	<rect fill="yellow" height="224.5641535404" stroke="yellow" width="9" x="428.5" y="49.9999999998967" />
	<line stroke="black" stroke-width="2" x1="460" x2="460" y1="350" y2="352.7" />
	<g fill="black" font-family="Arial" font-size="13.5" stroke="none" text-anchor="end" transform="rotate(-45,451,359)">
		<text x="451" y="363.5">SMG01026</text>
	</g>
	<rect fill="crimson" height="67.0974155069583" stroke="crimson" width="9" x="446.5" y="282.902584493042" />
	<rect fill="blue" height="0.29438752102768" stroke="blue" width="9" x="446.5" y="282.608196972014" />
	<rect fill="lightseagreen" height="0.0611714329408167" stroke="lightseagreen" width="9" x="446.5" y="282.547025539073" />
	<rect fill="orange" height="0.103226793087628" stroke="orange" width="9" x="446.5" y="282.443798745986" />
	<rect fill="mediumpurple" height="0.516133965438141" stroke="mediumpurple" width="9" x="446.5" y="281.927664780547" />
	<rect fill="lawngreen" height="2.41244838660346" stroke="lawngreen" width="9" x="446.5" y="279.515216393944" />
	<rect fill="yellow" height="229.5152163939" stroke="yellow" width="9" x="446.5" y="50.000000000044" />
	<line stroke="black" stroke-width="2" x1="478" x2="478" y1="350" y2="352.7" />
	<g fill="black" font-family="Arial" font-size="13.5" stroke="none" text-anchor="end" transform="rotate(-45,469,359)">
		<text x="469" y="363.5">KSS01027</text>
	</g>
	<rect fill="crimson" height="1.93072335219452" stroke="crimson" width="9" x="464.5" y="348.069276647805" />
	<rect fill="blue" height="20.3165621654687" stroke="blue" width="9" x="464.5" y="327.752714482337" />
	<rect fill="lightseagreen" height="0.355558953968496" stroke="lightseagreen" width="9" x="464.5" y="327.397155528368" />
	<rect fill="orange" height="0.259978589998471" stroke="orange" width="9" x="464.5" y="327.13717693837" />
	<rect fill="mediumpurple" height="0.634653616760973" stroke="mediumpurple" width="9" x="464.5" y="326.502523321609" />
	<rect fill="lightcoral" height="0.0114696436764031" stroke="lightcoral" width="9" x="464.5" y="326.491053677932" />
	<rect fill="lawngreen" height="0.0267625019116073" stroke="lawngreen" width="9" x="464.5" y="326.464291176021" />
	<rect fill="yellow" height="276.4642911759" stroke="yellow" width="9" x="464.5" y="50.0000000001207" />
	<line stroke="black" stroke-width="2" x1="496" x2="496" y1="350" y2="352.7" />
	<g fill="black" font-family="Arial" font-size="13.5" stroke="none" text-anchor="end" transform="rotate(-45,487,359)">
		<text x="487" y="363.5">KRL01028</text>
	</g>
	<rect fill="crimson" height="37.5669062547789" stroke="crimson" width="9" x="482.5" y="312.433093745221" />
	<rect fill="blue" height="0.191160727940052" stroke="blue" width="9" x="482.5" y="312.241933017281" />
	<rect fill="lightseagreen" height="1.06285364734669" stroke="lightseagreen" width="9" x="482.5" y="311.179079369934" />
	<rect fill="orange" height="0.921394708671051" stroke="orange" width="9" x="482.5" y="310.257684661263" />
	<rect fill="mediumpurple" height="0.0994035785288271" stroke="mediumpurple" width="9" x="482.5" y="310.158281082734" />
	<rect fill="dodgerblue" height="0.33261966661569" stroke="dodgerblue" width="9" x="482.5" y="309.825661416119" />
	<rect fill="lawngreen" height="0.0573482183820156" stroke="lawngreen" width="9" x="482.5" y="309.768313197737" />
	<rect fill="yellow" height="259.7683131978" stroke="yellow" width="9" x="482.5" y="49.9999999999367" />
	<line stroke="black" stroke-width="2" x1="514" x2="514" y1="350" y2="352.7" />
	<g fill="black" font-family="Arial" font-size="13.5" stroke="none" text-anchor="end" transform="rotate(-45,505,359)">
		<text x="505" y="363.5">PBB01029</text>
	</g>
	<rect fill="crimson" height="23.7995106285365" stroke="crimson" width="9" x="500.5" y="326.200489371464" />
	<rect fill="blue" height="8.57547025539072" stroke="blue" width="9" x="500.5" y="317.625019116073" />
	<rect fill="lightseagreen" height="0.095580363970026" stroke="lightseagreen" width="9" x="500.5" y="317.529438752103" />
	<rect fill="orange" height="0.133812509558036" stroke="orange" width="9" x="500.5" y="317.395626242545" />
	<rect fill="lawngreen" height="5.62012540143753" stroke="lawngreen" width="9" x="500.5" y="311.775500841107" />
	<rect fill="yellow" height="261.7755008412" stroke="yellow" width="9" x="500.5" y="49.9999999999072" />
	<line stroke="black" stroke-width="2" x1="532" x2="532" y1="350" y2="352.7" />
	<g fill="black" font-family="Arial" font-size="13.5" stroke="none" text-anchor="end" transform="rotate(-45,523,359)">
		<text x="523" y="363.5">DLD01030</text>
	</g>
	<rect fill="crimson" height="149.697966049855" stroke="crimson" width="9" x="518.5" y="200.302033950145" />
	<rect fill="blue" height="1.04373757455268" stroke="blue" width="9" x="518.5" y="199.258296375593" />
	<rect fill="lightseagreen" height="2.30539837895703" stroke="lightseagreen" width="9" x="518.5" y="196.952897996636" />
	<rect fill="orange" height="4.95488606820615" stroke="orange" width="9" x="518.5" y="191.99801192843" />
	<rect fill="lightcoral" height="0.581128612937757" stroke="lightcoral" width="9" x="518.5" y="191.416883315492" />
	<rect fill="lawngreen" height="0.0382321455880104" stroke="lawngreen" width="9" x="518.5" y="191.378651169904" />
	<rect fill="olive" height="0.40526074323291" stroke="olive" width="9" x="518.5" y="190.973390426671" />
	<rect fill="yellow" height="140.9733904266" stroke="yellow" width="9" x="518.5" y="50.0000000000709" />
	<line stroke="black" stroke-width="2" x1="550" x2="550" y1="350" y2="352.7" />
	<g fill="black" font-family="Arial" font-size="13.5" stroke="none" text-anchor="end" transform="rotate(-45,541,359)">
		<text x="541" y="363.5">PDD01031</text>
	</g>
	<rect fill="crimson" height="118.810215629301" stroke="crimson" width="9" x="536.5" y="231.189784370699" />
	<rect fill="blue" height="1.37253402660957" stroke="blue" width="9" x="536.5" y="229.817250344089" />
	<rect fill="lightseagreen" height="4.69490747820768" stroke="lightseagreen" width="9" x="536.5" y="225.122342865882" />
	<rect fill="orange" height="0.756996482642607" stroke="orange" width="9" x="536.5" y="224.365346383239" />
	<rect fill="lightcoral" height="0.0229392873528062" stroke="lightcoral" width="9" x="536.5" y="224.342407095886" />
	<rect fill="lawngreen" height="2.16776265484019" stroke="lawngreen" width="9" x="536.5" y="222.174644441046" />
	<rect fill="yellow" height="172.174644441" stroke="yellow" width="9" x="536.5" y="50.0000000000461" />
	<line stroke="black" stroke-width="2" x1="100" x2="550" y1="350" y2="350" />
	<line stroke="black" stroke-width="2" x1="100" x2="100" y1="50" y2="352.7" />
	<rect fill="yellow" height="7" stroke="yellow" width="7" x="562" y="97" />
	<text fill="black" font-family="Arial" font-size="10" stroke="none" x="572.5" y="104">Others</text>
	<rect fill="olive" height="7" stroke="olive" width="7" x="562" y="109" />
	<text fill="black" font-family="Arial" font-size="10" stroke="none" x="572.5" y="116">Lactobacillus_johnsonii</text>
	<rect fill="lawngreen" height="7" stroke="lawngreen" width="7" x="562" y="121" />
	<text fill="black" font-family="Arial" font-size="10" stroke="none" x="572.5" y="128">Prevotellaceae_bacterium</text>
	<rect fill="dodgerblue" height="7" stroke="dodgerblue" width="7" x="562" y="133" />
	<text fill="black" font-family="Arial" font-size="10" stroke="none" x="572.5" y="140">Bacteroides_coprophilus</text>
	<rect fill="lightcoral" height="7" stroke="lightcoral" width="7" x="562" y="145" />
	<text fill="black" font-family="Arial" font-size="10" stroke="none" x="572.5" y="152">Lactobacillus_gasseri</text>
	<rect fill="palegreen" height="7" stroke="palegreen" width="7" x="562" y="157" />
	<text fill="black" font-family="Arial" font-size="10" stroke="none" x="572.5" y="164">Lactobacillus_porci</text>
	<rect fill="mediumpurple" height="7" stroke="mediumpurple" width="7" x="562" y="169" />
	<text fill="black" font-family="Arial" font-size="10" stroke="none" x="572.5" y="176">Dialister_sp.</text>
	<rect fill="orange" height="7" stroke="orange" width="7" x="562" y="181" />
	<text fill="black" font-family="Arial" font-size="10" stroke="none" x="572.5" y="188">Bacteroides_coprocola</text>
	<rect fill="lightseagreen" height="7" stroke="lightseagreen" width="7" x="562" y="193" />
	<text fill="black" font-family="Arial" font-size="10" stroke="none" x="572.5" y="200">Bacteroides_plebeius</text>
	<rect fill="blue" height="7" stroke="blue" width="7" x="562" y="205" />
	<text fill="black" font-family="Arial" font-size="10" stroke="none" x="572.5" y="212">Lactobacillus_ruminis</text>
	<rect fill="crimson" height="7" stroke="crimson" width="7" x="562" y="217" />
	<text fill="black" font-family="Arial" font-size="10" stroke="none" x="572.5" y="224">Prevotella_copri</text>
	<!-- 
	Generated using the Perl SVG Module V2.50
	by Ronan Oger
	Info: http://www.roitsystems.com/
 -->
</svg>