<?xml version="1.0" encoding="UTF-8" standalone="yes"?>
<!DOCTYPE svg PUBLIC "-//W3C//DTD SVG 1.0//EN" "http://www.w3.org/TR/2001/REC-SVG-20010904/DTD/svg10.dtd">
<svg height="450" width="688" xmlns="http://www.w3.org/2000/svg" xmlns:svg="http://www.w3.org/2000/svg" xmlns:xlink="http://www.w3.org/1999/xlink">
	<text fill="black" font-family="Arial" font-size="15" stroke="none" text-anchor="end" x="92.5" y="355">0</text>
	<line stroke="black" stroke-width="2" x1="100" x2="95" y1="350" y2="350" />
	<text fill="black" font-family="Arial" font-size="15" stroke="none" text-anchor="end" x="92.5" y="280">0.25</text>
	<line stroke="black" stroke-width="2" x1="100" x2="95" y1="275" y2="275" />
	<line stroke="black" stroke-dasharray="3 2" stroke-width="0.5" x1="100" x2="550" y1="275" y2="275" />
	<text fill="black" font-family="Arial" font-size="15" stroke="none" text-anchor="end" x="92.5" y="205">0.5</text>
	<line stroke="black" stroke-width="2" x1="100" x2="95" y1="200" y2="200" />
	<line stroke="black" stroke-dasharray="3 2" stroke-width="0.5" x1="100" x2="550" y1="200" y2="200" />
	<text fill="black" font-family="Arial" font-size="15" stroke="none" text-anchor="end" x="92.5" y="130">0.75</text>
	<line stroke="black" stroke-width="2" x1="100" x2="95" y1="125" y2="125" />
	<line stroke="black" stroke-dasharray="3 2" stroke-width="0.5" x1="100" x2="550" y1="125" y2="125" />
	<text fill="black" font-family="Arial" font-size="15" stroke="none" text-anchor="end" x="92.5" y="55">1</text>
	<line stroke="black" stroke-width="2" x1="100" x2="95" y1="50" y2="50" />
	<line stroke="black" stroke-width="1" x1="100" x2="100" y1="50" y2="350" />
	<text fill="black" font-family="Arial" font-size="15" stroke="none" text-anchor="middle" x="325" y="421.26581755321">sample Name</text>
	<g transform="rotate(-90,47.5,200)">
		<text fill="black" font-family="Arial" font-size="15" stroke="none" text-anchor="middle" x="47.5" y="200">Relative Abundance</text>
	</g>
	<line stroke="black" stroke-width="2" x1="118" x2="118" y1="350" y2="352.7" />
	<g fill="black" font-family="Arial" font-size="13.5" stroke="none" text-anchor="end" transform="rotate(-45,109,359)">
		<text x="109" y="363.5">PRK01002</text>
	</g>
	<rect fill="crimson" height="206.113320079523" stroke="crimson" width="9" x="104.5" y="143.886679920477" />
	<rect fill="blue" height="8.62134883009635" stroke="blue" width="9" x="104.5" y="135.265331090381" />
	<rect fill="lightseagreen" height="4.14436458174033" stroke="lightseagreen" width="9" x="104.5" y="131.12096650864" />
	<rect fill="orange" height="58.6060559718612" stroke="orange" width="9" x="104.5" y="72.5149105367791" />
	<rect fill="mediumpurple" height="14.9028903502065" stroke="mediumpurple" width="9" x="104.5" y="57.6120201865726" />
	<rect fill="palegreen" height="4.37375745526839" stroke="palegreen" width="9" x="104.5" y="53.2382627313042" />
	<rect fill="lightcoral" height="0.126166080440434" stroke="lightcoral" width="9" x="104.5" y="53.1120966508638" />
	<rect fill="dodgerblue" height="2.50802875057348" stroke="dodgerblue" width="9" x="104.5" y="50.6040679002903" />
	<rect fill="lawngreen" height="0.0726410766172197" stroke="lawngreen" width="9" x="104.5" y="50.5314268236731" />
	<rect fill="yellow" height="0.531426823674" stroke="yellow" width="9" x="104.5" y="49.9999999999991" />
	<line stroke="black" stroke-width="2" x1="136" x2="136" y1="350" y2="352.7" />
	<g fill="black" font-family="Arial" font-size="13.5" stroke="none" text-anchor="end" transform="rotate(-45,127,359)">
		<text x="127" y="363.5">SMG01004</text>
	</g>
	<rect fill="crimson" height="103.012693072335" stroke="crimson" width="9" x="122.5" y="246.987306927665" />
	<rect fill="blue" height="14.4211653157975" stroke="blue" width="9" x="122.5" y="232.566141611867" />
	<rect fill="lightseagreen" height="13.2436152316868" stroke="lightseagreen" width="9" x="122.5" y="219.32252638018" />
	<rect fill="orange" height="133.980730998624" stroke="orange" width="9" x="122.5" y="85.3417953815567" />
	<rect fill="mediumpurple" height="31.9506040679004" stroke="mediumpurple" width="9" x="122.5" y="53.3911913136563" />
	<rect fill="palegreen" height="0.95580363970026" stroke="palegreen" width="9" x="122.5" y="52.435387673956" />
	<rect fill="lightcoral" height="0.0649946474996178" stroke="lightcoral" width="9" x="122.5" y="52.3703930264564" />
	<rect fill="dodgerblue" height="1.1087322220523" stroke="dodgerblue" width="9" x="122.5" y="51.2616608044041" />
	<rect fill="olive" height="0.0152928582352042" stroke="olive" width="9" x="122.5" y="51.2463679461689" />
	<rect fill="yellow" height="1.246367946168" stroke="yellow" width="9" x="122.5" y="50.0000000000009" />
	<line stroke="black" stroke-width="2" x1="154" x2="154" y1="350" y2="352.7" />
	<g fill="black" font-family="Arial" font-size="13.5" stroke="none" text-anchor="end" transform="rotate(-45,145,359)">
		<text x="145" y="363.5">SMG01005</text>
	</g>
	<rect fill="crimson" height="49.9388285670591" stroke="crimson" width="9" x="140.5" y="300.061171432941" />
	<rect fill="blue" height="9.13365958097568" stroke="blue" width="9" x="140.5" y="290.927511851965" />
	<rect fill="lightseagreen" height="44.10077993577" stroke="lightseagreen" width="9" x="140.5" y="246.826731916195" />
	<rect fill="orange" height="177.098944792782" stroke="orange" width="9" x="140.5" y="69.7277871234135" />
	<rect fill="mediumpurple" height="5.01605750114697" stroke="mediumpurple" width="9" x="140.5" y="64.7117296222665" />
	<rect fill="palegreen" height="13.2130295152164" stroke="palegreen" width="9" x="140.5" y="51.4987001070501" />
	<rect fill="lightcoral" height="0.00764642911760208" stroke="lightcoral" width="9" x="140.5" y="51.4910536779325" />
	<rect fill="dodgerblue" height="1.15461079675791" stroke="dodgerblue" width="9" x="140.5" y="50.3364428811746" />
	<rect fill="yellow" height="0.336442881174" stroke="yellow" width="9" x="140.5" y="50.0000000000006" />
	<line stroke="black" stroke-width="2" x1="172" x2="172" y1="350" y2="352.7" />
	<g fill="black" font-family="Arial" font-size="13.5" stroke="none" text-anchor="end" transform="rotate(-45,163,359)">
		<text x="163" y="363.5">LPK01006</text>
	</g>
	<rect fill="crimson" height="173.730692766478" stroke="crimson" width="9" x="158.5" y="176.269307233522" />
	<rect fill="blue" height="42.1318244379876" stroke="blue" width="9" x="158.5" y="134.137482795535" />
	<rect fill="lightseagreen" height="2.82917877351277" stroke="lightseagreen" width="9" x="158.5" y="131.308304022022" />
	<rect fill="orange" height="59.0266095733293" stroke="orange" width="9" x="158.5" y="72.2816944486924" />
	<rect fill="mediumpurple" height="9.85624713258909" stroke="mediumpurple" width="9" x="158.5" y="62.4254473161033" />
	<rect fill="palegreen" height="9.97094356935312" stroke="palegreen" width="9" x="158.5" y="52.4545037467502" />
	<rect fill="lightcoral" height="0.00382321455880104" stroke="lightcoral" width="9" x="158.5" y="52.4506805321914" />
	<rect fill="dodgerblue" height="0.252332160880869" stroke="dodgerblue" width="9" x="158.5" y="52.1983483713106" />
	<rect fill="lawngreen" height="0.0114696436764031" stroke="lawngreen" width="9" x="158.5" y="52.1868787276342" />
	<rect fill="yellow" height="2.186878727634" stroke="yellow" width="9" x="158.5" y="50.0000000000001" />
	<line stroke="black" stroke-width="2" x1="190" x2="190" y1="350" y2="352.7" />
	<g fill="black" font-family="Arial" font-size="13.5" stroke="none" text-anchor="end" transform="rotate(-45,181,359)">
		<text x="181" y="363.5">RRM01008</text>
	</g>
	<rect fill="crimson" height="140.961920782994" stroke="crimson" width="9" x="176.5" y="209.038079217006" />
	<rect fill="blue" height="10.9993882856706" stroke="blue" width="9" x="176.5" y="198.038690931335" />
	<rect fill="lightseagreen" height="3.82703777335983" stroke="lightseagreen" width="9" x="176.5" y="194.211653157975" />
	<rect fill="orange" height="105.723352194525" stroke="orange" width="9" x="176.5" y="88.4883009634499" />
	<rect fill="mediumpurple" height="28.9723199265943" stroke="mediumpurple" width="9" x="176.5" y="59.5159810368556" />
	<rect fill="palegreen" height="0.795228628230615" stroke="palegreen" width="9" x="176.5" y="58.720752408625" />
	<rect fill="lightcoral" height="3.22296987306927" stroke="lightcoral" width="9" x="176.5" y="55.4977825355557" />
	<rect fill="dodgerblue" height="0.47790181985013" stroke="dodgerblue" width="9" x="176.5" y="55.0198807157056" />
	<rect fill="yellow" height="5.0198807157" stroke="yellow" width="9" x="176.5" y="50.0000000000056" />
	<line stroke="black" stroke-width="2" x1="208" x2="208" y1="350" y2="352.7" />
	<g fill="black" font-family="Arial" font-size="13.5" stroke="none" text-anchor="end" transform="rotate(-45,199,359)">
		<text x="199" y="363.5">RSM01009</text>
	</g>
	<rect fill="crimson" height="158.636641688332" stroke="crimson" width="9" x="194.5" y="191.363358311668" />
	<rect fill="blue" height="5.72717540908395" stroke="blue" width="9" x="194.5" y="185.636182902584" />
	<rect fill="lightseagreen" height="85.8617525615538" stroke="lightseagreen" width="9" x="194.5" y="99.7744303410307" />
	<rect fill="orange" height="10.4717846765561" stroke="orange" width="9" x="194.5" y="89.3026456644746" />
	<rect fill="mediumpurple" height="28.0509252179232" stroke="mediumpurple" width="9" x="194.5" y="61.2517204465514" />
	<rect fill="palegreen" height="10.4603150328797" stroke="palegreen" width="9" x="194.5" y="50.7914054136717" />
	<rect fill="dodgerblue" height="0.649946474996178" stroke="dodgerblue" width="9" x="194.5" y="50.1414589386756" />
	<rect fill="olive" height="0.00764642911760208" stroke="olive" width="9" x="194.5" y="50.133812509558" />
	<rect fill="yellow" height="0.1338125095578" stroke="yellow" width="9" x="194.5" y="50.0000000000002" />
	<line stroke="black" stroke-width="2" x1="226" x2="226" y1="350" y2="352.7" />
	<g fill="black" font-family="Arial" font-size="13.5" stroke="none" text-anchor="end" transform="rotate(-45,217,359)">
		<text x="217" y="363.5">MSY01012</text>
	</g>
	<rect fill="crimson" height="54.9854717846766" stroke="crimson" width="9" x="212.5" y="295.014528215323" />
	<rect fill="blue" height="122.541673038691" stroke="blue" width="9" x="212.5" y="172.472855176633" />
	<rect fill="lightseagreen" height="15.3578528827038" stroke="lightseagreen" width="9" x="212.5" y="157.115002293929" />
	<rect fill="orange" height="93.1870316562165" stroke="orange" width="9" x="212.5" y="63.9279706377122" />
	<rect fill="mediumpurple" height="2.52714482336749" stroke="mediumpurple" width="9" x="212.5" y="61.4008258143447" />
	<rect fill="palegreen" height="10.29974002141" stroke="palegreen" width="9" x="212.5" y="51.1010857929348" />
	<rect fill="lightcoral" height="0.00764642911760208" stroke="lightcoral" width="9" x="212.5" y="51.0934393638172" />
	<rect fill="dodgerblue" height="0.600244685731764" stroke="dodgerblue" width="9" x="212.5" y="50.4931946780854" />
	<rect fill="yellow" height="0.493194678084" stroke="yellow" width="9" x="212.5" y="50.0000000000014" />
	<line stroke="black" stroke-width="2" x1="244" x2="244" y1="350" y2="352.7" />
	<g fill="black" font-family="Arial" font-size="13.5" stroke="none" text-anchor="end" transform="rotate(-45,235,359)">
		<text x="235" y="363.5">YRB01013</text>
	</g>
	<rect fill="crimson" height="116.55069582505" stroke="crimson" width="9" x="230.5" y="233.44930417495" />
	<rect fill="blue" height="50.0267625019116" stroke="blue" width="9" x="230.5" y="183.422541673038" />
	<rect fill="lightseagreen" height="5.46719681908548" stroke="lightseagreen" width="9" x="230.5" y="177.955344853953" />
	<rect fill="orange" height="90.568129683438" stroke="orange" width="9" x="230.5" y="87.387215170515" />
	<rect fill="mediumpurple" height="33.2734363052454" stroke="mediumpurple" width="9" x="230.5" y="54.1137788652696" />
	<rect fill="palegreen" height="1.42605903043279" stroke="palegreen" width="9" x="230.5" y="52.6877198348368" />
	<rect fill="lightcoral" height="0.0114696436764031" stroke="lightcoral" width="9" x="230.5" y="52.6762501911604" />
	<rect fill="dodgerblue" height="1.92690013763572" stroke="dodgerblue" width="9" x="230.5" y="50.7493500535247" />
	<rect fill="lawngreen" height="0.0458785747056126" stroke="lawngreen" width="9" x="230.5" y="50.7034714788191" />
	<rect fill="yellow" height="0.70347147882" stroke="yellow" width="9" x="230.5" y="49.9999999999991" />
	<line stroke="black" stroke-width="2" x1="262" x2="262" y1="350" y2="352.7" />
	<g fill="black" font-family="Arial" font-size="13.5" stroke="none" text-anchor="end" transform="rotate(-45,253,359)">
		<text x="253" y="363.5">MML01014</text>
	</g>
	<rect fill="crimson" height="122.702248050161" stroke="crimson" width="9" x="248.5" y="227.297751949839" />
	<rect fill="blue" height="26.8695519192537" stroke="blue" width="9" x="248.5" y="200.428200030586" />
	<rect fill="lightseagreen" height="27.9285823520416" stroke="lightseagreen" width="9" x="248.5" y="172.499617678544" />
	<rect fill="orange" height="56.7938522709894" stroke="orange" width="9" x="248.5" y="115.705765407555" />
	<rect fill="mediumpurple" height="61.5269918947851" stroke="mediumpurple" width="9" x="248.5" y="54.1787735127697" />
	<rect fill="palegreen" height="2.5615537543967" stroke="palegreen" width="9" x="248.5" y="51.617219758373" />
	<rect fill="lightcoral" height="0.0764642911760208" stroke="lightcoral" width="9" x="248.5" y="51.540755467197" />
	<rect fill="dodgerblue" height="1.21578222969873" stroke="dodgerblue" width="9" x="248.5" y="50.3249732374982" />
	<rect fill="lawngreen" height="0.0191160727940052" stroke="lawngreen" width="9" x="248.5" y="50.3058571647042" />
	<rect fill="olive" height="0.0458785747056126" stroke="olive" width="9" x="248.5" y="50.2599785899986" />
	<rect fill="yellow" height="0.2599785899985" stroke="yellow" width="9" x="248.5" y="50.0000000000001" />
	<line stroke="black" stroke-width="2" x1="280" x2="280" y1="350" y2="352.7" />
	<g fill="black" font-family="Arial" font-size="13.5" stroke="none" text-anchor="end" transform="rotate(-45,271,359)">
		<text x="271" y="363.5">RRG01015</text>
	</g>
	<rect fill="crimson" height="192.76265484019" stroke="crimson" width="9" x="266.5" y="157.23734515981" />
	<rect fill="blue" height="7.82229698730693" stroke="blue" width="9" x="266.5" y="149.415048172503" />
	<rect fill="lightseagreen" height="4.51139317938522" stroke="lightseagreen" width="9" x="266.5" y="144.903654993118" />
	<rect fill="orange" height="81.6409236886374" stroke="orange" width="9" x="266.5" y="63.2627313044808" />
	<rect fill="mediumpurple" height="10.0015292858235" stroke="mediumpurple" width="9" x="266.5" y="53.2612020186573" />
	<rect fill="palegreen" height="2.32451445175103" stroke="palegreen" width="9" x="266.5" y="50.9366875669063" />
	<rect fill="lightcoral" height="0.0420553601468115" stroke="lightcoral" width="9" x="266.5" y="50.8946322067595" />
	<rect fill="dodgerblue" height="0.535250038232145" stroke="dodgerblue" width="9" x="266.5" y="50.3593821685273" />
	<rect fill="lawngreen" height="0.0229392873528062" stroke="lawngreen" width="9" x="266.5" y="50.3364428811745" />
	<rect fill="yellow" height="0.336442881174" stroke="yellow" width="9" x="266.5" y="50.0000000000005" />
	<line stroke="black" stroke-width="2" x1="298" x2="298" y1="350" y2="352.7" />
	<g fill="black" font-family="Arial" font-size="13.5" stroke="none" text-anchor="end" transform="rotate(-45,289,359)">
		<text x="289" y="363.5">AEO01016</text>
	</g>
	<rect fill="crimson" height="8.16256308304023" stroke="crimson" width="9" x="284.5" y="341.83743691696" />
	<rect fill="blue" height="10.0971096497936" stroke="blue" width="9" x="284.5" y="331.740327267166" />
	<rect fill="lightseagreen" height="137.566906254779" stroke="lightseagreen" width="9" x="284.5" y="194.173421012387" />
	<rect fill="orange" height="55.8953968496712" stroke="orange" width="9" x="284.5" y="138.278024162716" />
	<rect fill="mediumpurple" height="36.0108579293469" stroke="mediumpurple" width="9" x="284.5" y="102.267166233369" />
	<rect fill="palegreen" height="39.8111332007952" stroke="palegreen" width="9" x="284.5" y="62.4560330325738" />
	<rect fill="lightcoral" height="0.0152928582352042" stroke="lightcoral" width="9" x="284.5" y="62.4407401743386" />
	<rect fill="dodgerblue" height="10.6744150481725" stroke="dodgerblue" width="9" x="284.5" y="51.7663251261661" />
	<rect fill="lawngreen" height="0.0305857164704082" stroke="lawngreen" width="9" x="284.5" y="51.7357394096957" />
	<rect fill="yellow" height="1.735739409696" stroke="yellow" width="9" x="284.5" y="49.9999999999997" />
	<line stroke="black" stroke-width="2" x1="316" x2="316" y1="350" y2="352.7" />
	<g fill="black" font-family="Arial" font-size="13.5" stroke="none" text-anchor="end" transform="rotate(-45,307,359)">
		<text x="307" y="363.5">AR001017</text>
	</g>
	<rect fill="crimson" height="17.2121119437223" stroke="crimson" width="9" x="302.5" y="332.787888056278" />
	<rect fill="blue" height="6.9926594280471" stroke="blue" width="9" x="302.5" y="325.795228628231" />
	<rect fill="lightseagreen" height="194.551919253709" stroke="lightseagreen" width="9" x="302.5" y="131.243309374522" />
	<rect fill="orange" height="56.8473772748127" stroke="orange" width="9" x="302.5" y="74.3959320997093" />
	<rect fill="mediumpurple" height="2.88652699189478" stroke="mediumpurple" width="9" x="302.5" y="71.5094051078146" />
	<rect fill="palegreen" height="20.2400978742927" stroke="palegreen" width="9" x="302.5" y="51.2693072335219" />
	<rect fill="lightcoral" height="0.0305857164704082" stroke="lightcoral" width="9" x="302.5" y="51.2387215170515" />
	<rect fill="dodgerblue" height="0.741703624407402" stroke="dodgerblue" width="9" x="302.5" y="50.4970178926441" />
	<rect fill="lawngreen" height="0.0152928582352042" stroke="lawngreen" width="9" x="302.5" y="50.4817250344088" />
	<rect fill="olive" height="0.122342865881633" stroke="olive" width="9" x="302.5" y="50.3593821685272" />
	<rect fill="yellow" height="0.359382168528" stroke="yellow" width="9" x="302.5" y="49.9999999999992" />
	<line stroke="black" stroke-width="2" x1="334" x2="334" y1="350" y2="352.7" />
	<g fill="black" font-family="Arial" font-size="13.5" stroke="none" text-anchor="end" transform="rotate(-45,325,359)">
		<text x="325" y="363.5">EMS01018</text>
	</g>
	<rect fill="crimson" height="132.688484477749" stroke="crimson" width="9" x="320.5" y="217.311515522251" />
	<rect fill="blue" height="7.88729163480654" stroke="blue" width="9" x="320.5" y="209.424223887445" />
	<rect fill="lightseagreen" height="9.56568282612021" stroke="lightseagreen" width="9" x="320.5" y="199.858541061324" />
	<rect fill="orange" height="103.337666309833" stroke="orange" width="9" x="320.5" y="96.5208747514909" />
	<rect fill="mediumpurple" height="34.3439363817096" stroke="mediumpurple" width="9" x="320.5" y="62.1769383697813" />
	<rect fill="palegreen" height="2.12953050925218" stroke="palegreen" width="9" x="320.5" y="60.0474078605291" />
	<rect fill="lightcoral" height="0.0229392873528062" stroke="lightcoral" width="9" x="320.5" y="60.0244685731763" />
	<rect fill="dodgerblue" height="2.72977519498394" stroke="dodgerblue" width="9" x="320.5" y="57.2946933781923" />
	<rect fill="lawngreen" height="6.15919865422848" stroke="lawngreen" width="9" x="320.5" y="51.1354947239639" />
	<rect fill="yellow" height="1.135494723963" stroke="yellow" width="9" x="320.5" y="50.0000000000009" />
	<line stroke="black" stroke-width="2" x1="352" x2="352" y1="350" y2="352.7" />
	<g fill="black" font-family="Arial" font-size="13.5" stroke="none" text-anchor="end" transform="rotate(-45,343,359)">
		<text x="343" y="363.5">APA01019</text>
	</g>
	<rect fill="crimson" height="159.69567212112" stroke="crimson" width="9" x="338.5" y="190.30432787888" />
	<rect fill="blue" height="8.46459703318551" stroke="blue" width="9" x="338.5" y="181.839730845695" />
	<rect fill="lightseagreen" height="10.8502829178773" stroke="lightseagreen" width="9" x="338.5" y="170.989447927817" />
	<rect fill="orange" height="94.7048478360606" stroke="orange" width="9" x="338.5" y="76.2846000917569" />
	<rect fill="mediumpurple" height="6.71356476525462" stroke="mediumpurple" width="9" x="338.5" y="69.5710353265023" />
	<rect fill="palegreen" height="2.16011622572259" stroke="palegreen" width="9" x="338.5" y="67.4109191007797" />
	<rect fill="lightcoral" height="13.6985777641841" stroke="lightcoral" width="9" x="338.5" y="53.7123413365955" />
	<rect fill="dodgerblue" height="1.0972625783759" stroke="dodgerblue" width="9" x="338.5" y="52.6150787582196" />
	<rect fill="lawngreen" height="0.0573482183820156" stroke="lawngreen" width="9" x="338.5" y="52.5577305398376" />
	<rect fill="olive" height="0.198807157057654" stroke="olive" width="9" x="338.5" y="52.35892338278" />
	<rect fill="yellow" height="2.35892338278" stroke="yellow" width="9" x="338.5" y="50" />
	<line stroke="black" stroke-width="2" x1="370" x2="370" y1="350" y2="352.7" />
	<g fill="black" font-family="Arial" font-size="13.5" stroke="none" text-anchor="end" transform="rotate(-45,361,359)">
		<text x="361" y="363.5">MRK01020</text>
	</g>
	<rect fill="crimson" height="149.625324973237" stroke="crimson" width="9" x="356.5" y="200.374675026763" />
	<rect fill="blue" height="6.93913442422389" stroke="blue" width="9" x="356.5" y="193.435540602539" />
	<rect fill="lightseagreen" height="5.54366111026152" stroke="lightseagreen" width="9" x="356.5" y="187.891879492277" />
	<rect fill="orange" height="128.769689554978" stroke="orange" width="9" x="356.5" y="59.1221899372992" />
	<rect fill="mediumpurple" height="5.80746291481878" stroke="mediumpurple" width="9" x="356.5" y="53.3147270224804" />
	<rect fill="palegreen" height="1.24254473161034" stroke="palegreen" width="9" x="356.5" y="52.0721822908701" />
	<rect fill="lightcoral" height="0.0267625019116073" stroke="lightcoral" width="9" x="356.5" y="52.0454197889585" />
	<rect fill="dodgerblue" height="1.59428047102004" stroke="dodgerblue" width="9" x="356.5" y="50.4511393179384" />
	<rect fill="lawngreen" height="0.0152928582352042" stroke="lawngreen" width="9" x="356.5" y="50.4358464597032" />
	<rect fill="olive" height="0.00764642911760208" stroke="olive" width="9" x="356.5" y="50.4282000305856" />
	<rect fill="yellow" height="0.428200030587" stroke="yellow" width="9" x="356.5" y="49.9999999999986" />
	<line stroke="black" stroke-width="2" x1="388" x2="388" y1="350" y2="352.7" />
	<g fill="black" font-family="Arial" font-size="13.5" stroke="none" text-anchor="end" transform="rotate(-45,379,359)">
		<text x="379" y="363.5">SSM01021</text>
	</g>
	<rect fill="crimson" height="108.716929194066" stroke="crimson" width="9" x="374.5" y="241.283070805934" />
	<rect fill="blue" height="31.8282612020187" stroke="blue" width="9" x="374.5" y="209.454809603915" />
	<rect fill="lightseagreen" height="49.7285517663252" stroke="lightseagreen" width="9" x="374.5" y="159.72625783759" />
	<rect fill="orange" height="99.8508946322067" stroke="orange" width="9" x="374.5" y="59.8753632053831" />
	<rect fill="palegreen" height="5.07340571952897" stroke="palegreen" width="9" x="374.5" y="54.8019574858541" />
	<rect fill="dodgerblue" height="2.85594127542438" stroke="dodgerblue" width="9" x="374.5" y="51.9460162104298" />
	<rect fill="lawngreen" height="0.126166080440434" stroke="lawngreen" width="9" x="374.5" y="51.8198501299893" />
	<rect fill="yellow" height="1.819850129988" stroke="yellow" width="9" x="374.5" y="50.0000000000013" />
	<line stroke="black" stroke-width="2" x1="406" x2="406" y1="350" y2="352.7" />
	<g fill="black" font-family="Arial" font-size="13.5" stroke="none" text-anchor="end" transform="rotate(-45,397,359)">
		<text x="397" y="363.5">TSY01022</text>
	</g>
	<rect fill="crimson" height="116.095733292552" stroke="crimson" width="9" x="392.5" y="233.904266707448" />
	<rect fill="blue" height="135.922923994495" stroke="blue" width="9" x="392.5" y="97.9813427129531" />
	<rect fill="lightseagreen" height="11.4849365346383" stroke="lightseagreen" width="9" x="392.5" y="86.4964061783148" />
	<rect fill="orange" height="31.2509558036397" stroke="orange" width="9" x="392.5" y="55.2454503746751" />
	<rect fill="mediumpurple" height="2.77565376968956" stroke="mediumpurple" width="9" x="392.5" y="52.4697966049855" />
	<rect fill="palegreen" height="0.340266095733294" stroke="palegreen" width="9" x="392.5" y="52.1295305092523" />
	<rect fill="lightcoral" height="0.0229392873528062" stroke="lightcoral" width="9" x="392.5" y="52.1065912218994" />
	<rect fill="dodgerblue" height="0.263801804557272" stroke="dodgerblue" width="9" x="392.5" y="51.8427894173422" />
	<rect fill="lawngreen" height="0.0382321455880104" stroke="lawngreen" width="9" x="392.5" y="51.8045572717542" />
	<rect fill="olive" height="0.0152928582352042" stroke="olive" width="9" x="392.5" y="51.789264413519" />
	<rect fill="yellow" height="1.789264413519" stroke="yellow" width="9" x="392.5" y="50" />
	<line stroke="black" stroke-width="2" x1="424" x2="424" y1="350" y2="352.7" />
	<g fill="black" font-family="Arial" font-size="13.5" stroke="none" text-anchor="end" transform="rotate(-45,415,359)">
		<text x="415" y="363.5">DBM01024</text>
	</g>
	<rect fill="crimson" height="138.278024162716" stroke="crimson" width="9" x="410.5" y="211.721975837284" />
	<rect fill="blue" height="33.9157363511241" stroke="blue" width="9" x="410.5" y="177.80623948616" />
	<rect fill="lightseagreen" height="15.5681296834379" stroke="lightseagreen" width="9" x="410.5" y="162.238109802722" />
	<rect fill="orange" height="66.068970790641" stroke="orange" width="9" x="410.5" y="96.1691390120811" />
	<rect fill="mediumpurple" height="35.2653310903809" stroke="mediumpurple" width="9" x="410.5" y="60.9038079217002" />
	<rect fill="palegreen" height="3.21914665851048" stroke="palegreen" width="9" x="410.5" y="57.6846612631898" />
	<rect fill="lightcoral" height="0.0152928582352042" stroke="lightcoral" width="9" x="410.5" y="57.6693684049546" />
	<rect fill="dodgerblue" height="6.38859152775654" stroke="dodgerblue" width="9" x="410.5" y="51.280776877198" />
	<rect fill="lawngreen" height="0.0573482183820156" stroke="lawngreen" width="9" x="410.5" y="51.223428658816" />
	<rect fill="olive" height="0.397614314115309" stroke="olive" width="9" x="410.5" y="50.8258143447007" />
	<rect fill="yellow" height="0.825814344702" stroke="yellow" width="9" x="410.5" y="49.9999999999987" />
	<line stroke="black" stroke-width="2" x1="442" x2="442" y1="350" y2="352.7" />
	<g fill="black" font-family="Arial" font-size="13.5" stroke="none" text-anchor="end" transform="rotate(-45,433,359)">
		<text x="433" y="363.5">VHW01025</text>
	</g>
	<rect fill="crimson" height="143.408778100627" stroke="crimson" width="9" x="428.5" y="206.591221899373" />
	<rect fill="blue" height="42.5714941122495" stroke="blue" width="9" x="428.5" y="164.019727787124" />
	<rect fill="lightseagreen" height="4.40816638629759" stroke="lightseagreen" width="9" x="428.5" y="159.611561400826" />
	<rect fill="orange" height="59.7300810521487" stroke="orange" width="9" x="428.5" y="99.8814803486773" />
	<rect fill="mediumpurple" height="46.3832390273742" stroke="mediumpurple" width="9" x="428.5" y="53.4982413213031" />
	<rect fill="palegreen" height="1.1163786511699" stroke="palegreen" width="9" x="428.5" y="52.3818626701332" />
	<rect fill="lightcoral" height="0.0191160727940052" stroke="lightcoral" width="9" x="428.5" y="52.3627465973392" />
	<rect fill="dodgerblue" height="0.554366111026152" stroke="dodgerblue" width="9" x="428.5" y="51.808380486313" />
	<rect fill="lawngreen" height="0.0305857164704082" stroke="lawngreen" width="9" x="428.5" y="51.7777947698426" />
	<rect fill="yellow" height="1.777794769842" stroke="yellow" width="9" x="428.5" y="50.0000000000006" />
	<line stroke="black" stroke-width="2" x1="460" x2="460" y1="350" y2="352.7" />
	<g fill="black" font-family="Arial" font-size="13.5" stroke="none" text-anchor="end" transform="rotate(-45,451,359)">
		<text x="451" y="363.5">SMG01026</text>
	</g>
	<rect fill="crimson" height="135.796757914054" stroke="crimson" width="9" x="446.5" y="214.203242085946" />
	<rect fill="blue" height="32.107355864811" stroke="blue" width="9" x="446.5" y="182.095886221135" />
	<rect fill="lightseagreen" height="2.50802875057348" stroke="lightseagreen" width="9" x="446.5" y="179.587857470561" />
	<rect fill="orange" height="63.7635724116837" stroke="orange" width="9" x="446.5" y="115.824285058878" />
	<rect fill="mediumpurple" height="62.5630830402201" stroke="mediumpurple" width="9" x="446.5" y="53.2612020186575" />
	<rect fill="palegreen" height="0.416730386909313" stroke="palegreen" width="9" x="446.5" y="52.8444716317482" />
	<rect fill="lightcoral" height="0.0114696436764031" stroke="lightcoral" width="9" x="446.5" y="52.8330019880718" />
	<rect fill="dodgerblue" height="0.206453586175256" stroke="dodgerblue" width="9" x="446.5" y="52.6265484018965" />
	<rect fill="olive" height="0.0229392873528062" stroke="olive" width="9" x="446.5" y="52.6036091145437" />
	<rect fill="yellow" height="2.603609114544" stroke="yellow" width="9" x="446.5" y="49.9999999999997" />
	<line stroke="black" stroke-width="2" x1="478" x2="478" y1="350" y2="352.7" />
	<g fill="black" font-family="Arial" font-size="13.5" stroke="none" text-anchor="end" transform="rotate(-45,469,359)">
		<text x="469" y="363.5">KSS01027</text>
	</g>
	<rect fill="crimson" height="4.33934852423919" stroke="crimson" width="9" x="464.5" y="345.660651475761" />
	<rect fill="blue" height="123.554824896773" stroke="blue" width="9" x="464.5" y="222.105826578988" />
	<rect fill="lightseagreen" height="45.2668603762044" stroke="lightseagreen" width="9" x="464.5" y="176.838966202783" />
	<rect fill="orange" height="115.101697507264" stroke="orange" width="9" x="464.5" y="61.7372686955191" />
	<rect fill="mediumpurple" height="4.15583422541673" stroke="mediumpurple" width="9" x="464.5" y="57.5814344701024" />
	<rect fill="palegreen" height="5.71570576540755" stroke="palegreen" width="9" x="464.5" y="51.8657287046948" />
	<rect fill="dodgerblue" height="1.18519651322832" stroke="dodgerblue" width="9" x="464.5" y="50.6805321914665" />
	<rect fill="olive" height="0.0267625019116073" stroke="olive" width="9" x="464.5" y="50.6537696895549" />
	<rect fill="yellow" height="0.653769689556" stroke="yellow" width="9" x="464.5" y="49.9999999999989" />
	<line stroke="black" stroke-width="2" x1="496" x2="496" y1="350" y2="352.7" />
	<g fill="black" font-family="Arial" font-size="13.5" stroke="none" text-anchor="end" transform="rotate(-45,487,359)">
		<text x="487" y="363.5">KRL01028</text>
	</g>
	<rect fill="crimson" height="107.516439822603" stroke="crimson" width="9" x="482.5" y="242.483560177397" />
	<rect fill="blue" height="7.69230769230768" stroke="blue" width="9" x="482.5" y="234.791252485089" />
	<rect fill="lightseagreen" height="9.11454350818167" stroke="lightseagreen" width="9" x="482.5" y="225.676708976908" />
	<rect fill="orange" height="169.433399602386" stroke="orange" width="9" x="482.5" y="56.243309374522" />
	<rect fill="mediumpurple" height="1.34577152469797" stroke="mediumpurple" width="9" x="482.5" y="54.897537849824" />
	<rect fill="palegreen" height="3.39883774277412" stroke="palegreen" width="9" x="482.5" y="51.4987001070499" />
	<rect fill="lightcoral" height="0.0802875057348219" stroke="lightcoral" width="9" x="482.5" y="51.4184126013151" />
	<rect fill="dodgerblue" height="0.370851812203701" stroke="dodgerblue" width="9" x="482.5" y="51.0475607891114" />
	<rect fill="lawngreen" height="0.00764642911760208" stroke="lawngreen" width="9" x="482.5" y="51.0399143599938" />
	<rect fill="olive" height="0.0344089310292093" stroke="olive" width="9" x="482.5" y="51.0055054289645" />
	<rect fill="yellow" height="1.005505428966" stroke="yellow" width="9" x="482.5" y="49.9999999999986" />
	<line stroke="black" stroke-width="2" x1="514" x2="514" y1="350" y2="352.7" />
	<g fill="black" font-family="Arial" font-size="13.5" stroke="none" text-anchor="end" transform="rotate(-45,505,359)">
		<text x="505" y="363.5">PBB01029</text>
	</g>
	<rect fill="crimson" height="42.1165315797522" stroke="crimson" width="9" x="500.5" y="307.883468420248" />
	<rect fill="blue" height="200.921394708671" stroke="blue" width="9" x="500.5" y="106.962073711577" />
	<rect fill="lightseagreen" height="10.5673650405261" stroke="lightseagreen" width="9" x="500.5" y="96.3947086710507" />
	<rect fill="orange" height="24.6253249732375" stroke="orange" width="9" x="500.5" y="71.7693836978132" />
	<rect fill="mediumpurple" height="15.8778100627007" stroke="mediumpurple" width="9" x="500.5" y="55.8915736351125" />
	<rect fill="palegreen" height="1.32283223734516" stroke="palegreen" width="9" x="500.5" y="54.5687413977673" />
	<rect fill="dodgerblue" height="0.588775042055361" stroke="dodgerblue" width="9" x="500.5" y="53.9799663557119" />
	<rect fill="lawngreen" height="0.0114696436764031" stroke="lawngreen" width="9" x="500.5" y="53.9684967120355" />
	<rect fill="olive" height="0.0764642911760208" stroke="olive" width="9" x="500.5" y="53.8920324208595" />
	<rect fill="yellow" height="3.89203242087" stroke="yellow" width="9" x="500.5" y="49.9999999999895" />
	<line stroke="black" stroke-width="2" x1="532" x2="532" y1="350" y2="352.7" />
	<g fill="black" font-family="Arial" font-size="13.5" stroke="none" text-anchor="end" transform="rotate(-45,523,359)">
		<text x="523" y="363.5">DLD01030</text>
	</g>
	<rect fill="crimson" height="176.812203700872" stroke="crimson" width="9" x="518.5" y="173.187796299128" />
	<rect fill="blue" height="3.69322526380179" stroke="blue" width="9" x="518.5" y="169.494571035327" />
	<rect fill="lightseagreen" height="9.31717387979814" stroke="lightseagreen" width="9" x="518.5" y="160.177397155528" />
	<rect fill="orange" height="99.1206606514758" stroke="orange" width="9" x="518.5" y="61.0567365040526" />
	<rect fill="mediumpurple" height="3.16944486924606" stroke="mediumpurple" width="9" x="518.5" y="57.8872916348065" />
	<rect fill="palegreen" height="0.829637559259827" stroke="palegreen" width="9" x="518.5" y="57.0576540755467" />
	<rect fill="dodgerblue" height="0.198807157057654" stroke="dodgerblue" width="9" x="518.5" y="56.858846918489" />
	<rect fill="olive" height="5.63924147423154" stroke="olive" width="9" x="518.5" y="51.2196054442575" />
	<rect fill="yellow" height="1.219605444258" stroke="yellow" width="9" x="518.5" y="49.9999999999995" />
	<line stroke="black" stroke-width="2" x1="550" x2="550" y1="350" y2="352.7" />
	<g fill="black" font-family="Arial" font-size="13.5" stroke="none" text-anchor="end" transform="rotate(-45,541,359)">
		<text x="541" y="363.5">PDD01031</text>
	</g>
	<rect fill="crimson" height="176.487230463374" stroke="crimson" width="9" x="536.5" y="173.512769536626" />
	<rect fill="blue" height="7.60819697201406" stroke="blue" width="9" x="536.5" y="165.904572564612" />
	<rect fill="lightseagreen" height="4.50374675026761" stroke="lightseagreen" width="9" x="536.5" y="161.400825814345" />
	<rect fill="orange" height="94.0740174338586" stroke="orange" width="9" x="536.5" y="67.3268083804859" />
	<rect fill="mediumpurple" height="10.7508793393485" stroke="mediumpurple" width="9" x="536.5" y="56.5759290411374" />
	<rect fill="palegreen" height="2.66478054748432" stroke="palegreen" width="9" x="536.5" y="53.911148493653" />
	<rect fill="lightcoral" height="0.114696436764031" stroke="lightcoral" width="9" x="536.5" y="53.796452056889" />
	<rect fill="dodgerblue" height="1.00550542896467" stroke="dodgerblue" width="9" x="536.5" y="52.7909466279243" />
	<rect fill="lawngreen" height="0.271448233674874" stroke="lawngreen" width="9" x="536.5" y="52.5194983942495" />
	<rect fill="olive" height="0.084110720293623" stroke="olive" width="9" x="536.5" y="52.4353876739558" />
	<rect fill="yellow" height="2.435387673957" stroke="yellow" width="9" x="536.5" y="49.9999999999988" />
	<line stroke="black" stroke-width="2" x1="100" x2="550" y1="350" y2="350" />
	<line stroke="black" stroke-width="2" x1="100" x2="100" y1="50" y2="352.7" />
	<rect fill="yellow" height="7" stroke="yellow" width="7" x="562" y="97" />
	<text fill="black" font-family="Arial" font-size="10" stroke="none" x="572.5" y="104">Others</text>
	<rect fill="olive" height="7" stroke="olive" width="7" x="562" y="109" />
	<text fill="black" font-family="Arial" font-size="10" stroke="none" x="572.5" y="116">Fusobacteriia</text>
	<rect fill="lawngreen" height="7" stroke="lawngreen" width="7" x="562" y="121" />
	<text fill="black" font-family="Arial" font-size="10" stroke="none" x="572.5" y="128">Spirochaetia</text>
	<rect fill="dodgerblue" height="7" stroke="dodgerblue" width="7" x="562" y="133" />
	<text fill="black" font-family="Arial" font-size="10" stroke="none" x="572.5" y="140">Coriobacteriia</text>
	<rect fill="lightcoral" height="7" stroke="lightcoral" width="7" x="562" y="145" />
	<text fill="black" font-family="Arial" font-size="10" stroke="none" x="572.5" y="152">Verrucomicrobiae</text>
	<rect fill="palegreen" height="7" stroke="palegreen" width="7" x="562" y="157" />
	<text fill="black" font-family="Arial" font-size="10" stroke="none" x="572.5" y="164">Actinobacteria</text>
	<rect fill="mediumpurple" height="7" stroke="mediumpurple" width="7" x="562" y="169" />
	<text fill="black" font-family="Arial" font-size="10" stroke="none" x="572.5" y="176">Negativicutes</text>
	<rect fill="orange" height="7" stroke="orange" width="7" x="562" y="181" />
	<text fill="black" font-family="Arial" font-size="10" stroke="none" x="572.5" y="188">Clostridia</text>
	<rect fill="lightseagreen" height="7" stroke="lightseagreen" width="7" x="562" y="193" />
	<text fill="black" font-family="Arial" font-size="10" stroke="none" x="572.5" y="200">Bacilli</text>
	<rect fill="blue" height="7" stroke="blue" width="7" x="562" y="205" />
	<text fill="black" font-family="Arial" font-size="10" stroke="none" x="572.5" y="212">Gammaproteobacteria</text>
	<rect fill="crimson" height="7" stroke="crimson" width="7" x="562" y="217" />
	<text fill="black" font-family="Arial" font-size="10" stroke="none" x="572.5" y="224">Bacteroidia</text>
	<!-- 
	Generated using the Perl SVG Module V2.50
	by Ronan Oger
	Info: http://www.roitsystems.com/
 -->
</svg>